<svg width="70" height="69" viewBox="0 0 70 69" fill="none" xmlns="http://www.w3.org/2000/svg">
<path d="M38.7693 61.8539L38.4785 61.6923" stroke="#373637" stroke-width="2"/>
<path d="M38.4785 61.6923L37.8485 55.1538" stroke="#808080" stroke-width="2"/>
<path d="M37.8485 55.1538L37.9831 54.7692" stroke="#373637" stroke-width="2"/>
<path d="M16.267 24C16.9059 24.6103 17.3995 24.418 17.7477 23.4231" stroke="#373637" stroke-width="2"/>
<path d="M47.1154 19.9923L45.0047 20.1308C44.818 20.141 44.6439 20.2077 44.4823 20.3308C43.1972 21.3 41.9103 21.3718 40.6216 20.5462C40.2052 20.2846 40.1298 20.4154 40.3954 20.9385L40.9016 21.9538C41.0631 22.2718 41.02 22.5205 40.7723 22.7C40.04 23.2333 39.3454 23.1974 38.6885 22.5923C38.3654 22.2897 38.3008 22.3795 38.4947 22.8615L38.7962 23.6154C38.9182 23.918 38.8572 24.0538 38.6131 24.0231C37.6367 23.9205 37.0839 23.1692 36.9547 21.7692C36.9295 21.4923 36.8182 21.3513 36.6208 21.3462C36.2618 21.3359 36.0088 21.1564 35.8616 20.8077C35.6641 20.341 35.7521 20.1718 36.1254 20.3C36.5562 20.4436 36.96 20.4026 37.337 20.1769C37.7282 19.9462 37.7354 19.6949 37.3585 19.4231C36.7303 18.9667 36.0823 18.8564 35.4147 19.0923C35.2352 19.1538 35.1185 19.3103 35.0647 19.5615C34.9785 19.9462 34.7936 20.2 34.51 20.3231C34.3162 20.4051 34.1349 20.3667 33.9662 20.2077C32.3975 18.6897 30.7444 18.5769 29.007 19.8692C28.8382 19.9923 28.6588 20.0308 28.4685 19.9846C27.6177 19.7615 23.2831 18.7 23.9185 20.5615C24.0011 20.8077 24.1393 20.9359 24.3331 20.9462L27.4993 21.1154C27.6644 21.1205 27.7416 21.2436 27.7308 21.4846L27.6177 23.9923C27.6034 24.2897 27.6931 24.4897 27.887 24.5923C28.5403 24.941 28.849 25.6333 28.8131 26.6692C28.8023 26.9615 28.8957 27.1436 29.0931 27.2154C30.5757 27.7795 31.5521 29.0897 32.0223 31.1462C32.0762 31.3667 32.0582 31.5769 31.9685 31.7769C31.8249 32.0897 31.7764 32.4154 31.8231 32.7538C31.8698 33.0923 31.9847 33.1487 32.1677 32.9231L32.5285 32.4769C32.7223 32.241 32.8462 32.3 32.9 32.6538C33.1423 34.2 33.2447 42.7538 31.3923 41.8923C31.2236 41.8154 31.089 41.6744 30.9885 41.4692L30.1377 39.7769C30.0049 39.5103 29.8362 39.4513 29.6316 39.6C28.1203 40.6872 27.7236 42.4231 28.4416 44.8077C28.5062 45.0179 28.5995 45.1949 28.7216 45.3385C29.4647 46.2 29.4485 47.0769 28.6731 47.9692C28.603 48.0511 28.5511 48.1609 28.5242 48.2847C28.4973 48.4084 28.4965 48.5405 28.5218 48.6642C28.5472 48.7878 28.5977 48.8975 28.6668 48.9792C28.7359 49.0609 28.8206 49.111 28.91 49.1231L30.967 49.4077C31.15 49.4333 31.3223 49.3846 31.4839 49.2615L33.7885 47.4846C33.9788 47.3359 33.977 47.1974 33.7831 47.0692C33.0508 46.5923 31.3116 46.9385 31.3547 45.4385C31.3574 45.3619 31.3729 45.2874 31.4001 45.2213C31.4272 45.1552 31.4651 45.0994 31.5105 45.0587C31.556 45.0179 31.6076 44.9934 31.6611 44.9872C31.7146 44.981 31.7683 44.9933 31.8177 45.0231L34.1708 46.4231C34.2641 46.4795 34.3377 46.5692 34.3916 46.6923L34.4723 46.8923C34.6303 47.2718 34.8618 47.4154 35.167 47.3231C35.8418 47.1179 36.4916 47.2 37.1162 47.5692C37.3029 47.6821 37.4052 47.5949 37.4231 47.3077C37.4411 47.0051 37.3585 46.7897 37.1754 46.6615C36.6657 46.2872 36.7788 46.1564 37.5147 46.2692C38.29 46.3821 38.8949 45.9462 39.3293 44.9615" stroke="#808080" stroke-width="2"/>
<path d="M39.3293 44.9615L40.2501 45.3769" stroke="#686868" stroke-width="2"/>
<path d="M40.25 45.3769C39.8875 46.1667 39.41 46.8154 38.8177 47.3231C38.2326 47.8257 38.2721 47.9667 38.9362 47.7462C39.8552 47.4436 40.5193 46.659 40.9285 45.3923C40.9895 45.2128 40.95 45.1308 40.81 45.1462L40.5193 45.1846" stroke="#808080" stroke-width="2"/>
<path d="M40.5193 45.1846C40.1208 44.4 39.5823 44.2513 38.9039 44.7385" stroke="#686868" stroke-width="2"/>
<path d="M38.9039 44.7385C36.829 45.5898 34.7829 45.5513 32.7654 44.6231C31.7854 44.1769 31.2847 44.2923 30.7408 45.4692C30.6557 45.6545 30.6197 45.877 30.6395 46.0959C30.6593 46.3148 30.7335 46.5156 30.8485 46.6615L31.7531 47.8C31.8429 47.9128 31.8447 48.0282 31.7585 48.1462C31.7262 48.1923 31.6921 48.2436 31.6562 48.3C31.6024 48.3872 31.5431 48.3923 31.4785 48.3154L30.0354 46.6077C29.8847 46.4282 29.8631 46.2231 29.9708 45.9923L30.8862 44C30.9867 43.7795 31.1285 43.6744 31.3116 43.6846C33.0347 43.7539 34.5047 44.8846 36.1093 44.7C37.757 44.5154 40.4924 42.6077 41.2785 45.5077C41.3395 45.7282 41.3162 45.9282 41.2085 46.1077L40.5839 47.1462C40.5444 47.2128 40.5229 47.2923 40.5193 47.3846C40.5193 47.4564 40.5193 47.5282 40.5193 47.6C40.5157 47.7795 40.5785 47.8744 40.7077 47.8846L42.3554 48.0077C42.5277 48.018 42.6749 47.9359 42.797 47.7615L42.9693 47.5154C43.1272 47.2949 43.12 47.0846 42.9477 46.8846C41.1565 44.8282 40.8011 42.3308 41.8816 39.3923C41.9105 39.3087 41.9193 39.2138 41.9065 39.1223C41.8937 39.0309 41.8602 38.948 41.8111 38.8866C41.7619 38.8251 41.7 38.7886 41.6348 38.7827C41.5697 38.7768 41.505 38.8018 41.4508 38.8539C40.6324 39.6923 40.5839 41.4923 39.5393 42C39.3418 42.0923 39.1947 42.0077 39.0977 41.7462C37.5147 37.5974 37.4626 33.4154 38.9416 29.2C39.0277 28.959 39.1623 28.8231 39.3454 28.7923C40.5803 28.5667 41.5513 27.7282 42.2585 26.2769C42.3734 26.041 42.3734 25.8026 42.2585 25.5615C41.9031 24.8231 41.3934 24.4974 40.7293 24.5846C40.4457 24.6256 40.3865 24.4821 40.5516 24.1539C41.1547 22.959 41.8367 22.6846 42.5977 23.3308C42.8813 23.5718 42.9657 23.4718 42.8508 23.0308L42.6677 22.3462C42.5816 22.0282 42.6588 21.8564 42.8993 21.8308C43.9708 21.7385 48.0093 21.9923 48.4347 20.5231C48.51 20.2667 48.4526 20.0974 48.2623 20.0154C48.0111 19.9128 47.7741 19.8898 47.5516 19.9462" stroke="#808080" stroke-width="2"/>
<path d="M49.1669 17.7538C49.7915 18.9436 50.6405 19.4872 51.7139 19.3846" stroke="#373637" stroke-width="2"/>
<path d="M49.9208 23.4231L49.9639 23.8077" stroke="#686868" stroke-width="2"/>
<path d="M49.9639 23.8077C48.7111 24.7616 47.2231 25.1282 45.5 24.9077C44.8359 24.8257 44.4357 25.2334 44.2993 26.1308C44.249 26.4692 44.3423 26.6 44.5793 26.5231L45.3493 26.2846C45.5359 26.2231 45.6921 26.2975 45.8177 26.5077C46.2485 27.2385 48.4185 30.2923 49.07 29.9616C49.2962 29.8487 49.3141 29.6846 49.1239 29.4692L47.8262 28.0231C47.7077 27.8898 47.6503 27.7154 47.6539 27.5C47.6539 27.4282 47.6539 27.359 47.6539 27.2923C47.6503 26.9026 47.7777 26.7718 48.0362 26.9L49.0862 27.4154C49.359 27.5487 49.447 27.4205 49.35 27.0308L49.1885 26.4C49.0952 26.0308 49.1795 25.9 49.4416 26.0077L50.6154 26.4692" stroke="#808080" stroke-width="2"/>
<path d="M50.6154 26.4692L51.2885 24.6077" stroke="#373637" stroke-width="2"/>
<path d="M51.2885 24.6077C51.4824 24.4334 51.5757 24.1744 51.5685 23.8308C51.5685 23.5846 51.6547 23.4692 51.827 23.4846C53.008 23.5769 54.0454 24.1821 54.9393 25.3" stroke="#686868" stroke-width="2"/>
<path d="M54.9393 25.3C53.55 26.0077 51.5093 25.6692 51.0246 28.1923C50.9708 28.4795 51.0139 28.7333 51.1539 28.9538C51.5452 29.5743 51.651 30.2333 51.4716 30.9308C51.4034 31.182 51.3782 31.4436 51.3962 31.7154C51.9185 39.1846 48.0631 43.8461 43.5993 46.1308C43.4593 46.2077 43.3516 46.3384 43.2762 46.5231C43.2403 46.6102 43.2062 46.6949 43.1739 46.7769C43.1563 46.8179 43.1478 46.8655 43.1494 46.9135C43.1511 46.9616 43.1629 47.0077 43.1833 47.046C43.2037 47.0843 43.2317 47.1128 43.2636 47.128C43.2956 47.1431 43.33 47.1441 43.3623 47.1308C48.7362 44.8231 54.0939 38.4538 51.7677 29.5077C51.738 29.3897 51.728 29.2634 51.7383 29.139C51.7487 29.0147 51.7792 28.8956 51.8274 28.7916C51.8756 28.6875 51.9402 28.6013 52.0159 28.54C52.0915 28.4787 52.1762 28.4439 52.2631 28.4385C52.8662 28.3923 53.1893 27.9436 53.2323 27.0923C53.2503 26.7436 53.3795 26.6 53.62 26.6615C54.2949 26.8308 54.8262 26.5846 55.2139 25.9231" stroke="#808080" stroke-width="2"/>
<path d="M55.2139 25.9231C55.6052 25.8769 55.8223 25.6487 55.8654 25.2385C55.8977 24.9718 55.8367 24.7564 55.6823 24.5923L54.9446 23.8077" stroke="#686868" stroke-width="2"/>
<path d="M36.637 54L37.0408 54.9615" stroke="#373637" stroke-width="2"/>
<path d="M37.0408 54.9615L37.7138 61.8846" stroke="#808080" stroke-width="2"/>
<path d="M37.7139 61.8846L37.6654 62.2231C37.6439 62.3769 37.687 62.4538 37.7947 62.4538L38.7693 62.4923" stroke="#373637" stroke-width="2"/>
<path d="M35.4039 62.6231L35.3985 56.0461C35.3985 55.9603 35.3821 55.876 35.3509 55.8026C35.3197 55.7291 35.2751 55.6693 35.2218 55.6297C35.1684 55.59 35.1085 55.572 35.0485 55.5776C34.9886 55.5832 34.9308 55.6123 34.8816 55.6615C34.3 56.2461 34.327 60.8615 34.23 62.0615C34.2085 62.3282 34.2929 62.459 34.4831 62.4538C34.7164 62.4436 34.9336 62.5 35.1346 62.6231" stroke="#808080" stroke-width="2"/>
<path d="M40.5192 45.1846L40.25 45.3769" stroke="#E8E7E7" stroke-width="2"/>
<path d="M55.2139 25.9231L54.9393 25.3" stroke="#E8E7E7" stroke-width="2"/>
<path d="M51.2885 24.6077L50.5023 24.1923" stroke="#A09E9F" stroke-width="2"/>
<path d="M50.5023 24.1923L49.9639 23.8077" stroke="#E8E7E7" stroke-width="2"/>
<path d="M37.8485 55.1538C37.6223 54.6769 37.3531 54.6128 37.0408 54.9615" stroke="#B7B6B7" stroke-width="2"/>
<path d="M50.5024 24.1923C49.9998 25.059 50.0375 25.818 50.6154 26.4692" stroke="#B7B6B7" stroke-width="2"/>
<path d="M38.9039 44.7385L39.3293 44.9615" stroke="#E8E7E7" stroke-width="2"/>
<path d="M38.4785 61.6923L38.29 62.0846C38.1321 62.4282 37.9795 62.4231 37.8323 62.0692C37.8 61.9923 37.7605 61.9308 37.7139 61.8846" stroke="#B7B6B7" stroke-width="2"/>
<path d="M32.8354 57.3462C23.8431 57.0385 8.06618 48.7769 9.22926 32.1385C10.0962 19.8231 19.9877 12.9923 27.3162 10.7769C31.2146 9.59231 37.2993 9.62308 40.9608 10.0769C49.6516 11.1385 64.8577 21.3692 61.5193 37.9231C58.9185 50.8077 47.0723 56.7231 38.8177 57.5385C38.6203 57.559 38.5664 57.7436 38.6562 58.0923C38.6795 58.1835 38.7226 58.2614 38.7789 58.3141C38.8353 58.3669 38.9019 58.3916 38.9685 58.3846C47.6431 57.5615 60.7385 50.8231 62.6931 36.6769C64.147 26.1846 57.5185 16.7769 51.2023 13.1308C40.8639 7.16154 30.6187 7.0641 20.4669 12.8385C10.43 18.5385 3.43541 33.6154 12.6216 47C17.5485 54.1692 25.3831 57.8539 32.4693 58.3308C32.5949 58.341 32.7152 58.3128 32.83 58.2462C33.0562 58.1077 33.1531 57.9205 33.1208 57.6846C33.0885 57.4641 32.9934 57.3513 32.8354 57.3462Z" stroke="#808080" stroke-width="2"/>
<path d="M33.4816 18.7385C33.8549 18.8257 34.23 18.8513 34.607 18.8154C34.9444 18.7846 34.9695 18.6436 34.6823 18.3923C34.327 18.0795 33.9159 18.0641 33.4493 18.3462C33.137 18.5359 33.1477 18.6667 33.4816 18.7385Z" stroke="#373637" stroke-width="2"/>
<path d="M46.5985 23.2462L48.0631 24.3154C48.5011 24.6385 48.5944 24.4974 48.3431 23.8923C47.9626 22.9846 47.4098 22.5692 46.6847 22.6462C46.1606 22.7026 46.1318 22.9026 46.5985 23.2462Z" stroke="#808080" stroke-width="2"/>
<path d="M24.2416 22.8692C23.7462 22.6923 23.2077 23.0846 22.8577 23.5846C22.8229 23.6351 22.7993 23.6994 22.7898 23.7692C22.7804 23.8389 22.7856 23.9109 22.8047 23.9757C22.8239 24.0404 22.8562 24.095 22.8973 24.1323C22.9385 24.1695 22.9866 24.1878 23.0354 24.1846C23.5523 24.1692 23.9867 23.8846 24.3385 23.3308C24.4893 23.1 24.457 22.9462 24.2416 22.8692Z" stroke="#808080" stroke-width="2"/>
<path d="M25.5177 26.8231C26.0813 27.0692 26.661 27.0487 27.2569 26.7615C27.4939 26.6487 27.4921 26.5462 27.2516 26.4539C26.9716 26.341 26.6862 26.3436 26.3954 26.4615C26.2267 26.5282 26.0562 26.5333 25.8839 26.4769L19.3685 24.2692C19.3004 24.2414 19.2276 24.2506 19.1641 24.2952C19.1005 24.3397 19.0509 24.4165 19.0247 24.5104C18.9985 24.6043 18.9977 24.7088 19.0224 24.8036C19.0472 24.8983 19.0957 24.9765 19.1585 25.0231C19.6054 25.3923 21.5977 25.9615 21.7754 26.3692C21.8687 26.5795 21.9998 26.7128 22.1685 26.7692C23.0946 27.0615 24.0118 27.0692 24.92 26.7923C25.121 26.7308 25.3203 26.741 25.5177 26.8231Z" stroke="#808080" stroke-width="2"/>
<path d="M16.5846 27.6846C17.0154 27.6615 19.0293 27.8615 19.277 26.8C19.3308 26.5795 19.277 26.4872 19.1154 26.5231L16.0893 27.2615C15.7841 27.3333 15.6782 27.159 15.7716 26.7385L15.9816 25.7692C16.0246 25.5692 15.9923 25.4026 15.8846 25.2692C15.5472 24.8385 15.1703 24.8436 14.7539 25.2846C14.6794 25.3636 14.6168 25.4633 14.5698 25.5777C14.5229 25.6922 14.4925 25.8191 14.4804 25.951C14.4684 26.083 14.4749 26.2172 14.4997 26.3458C14.5245 26.4745 14.567 26.5949 14.6246 26.7C16.477 30.0231 19.5139 31.6846 22.2493 29.4538C22.4593 29.2769 24.5593 27.9154 24.57 27.8538C24.6131 27.6487 24.5593 27.5615 24.4085 27.5923C23.1341 27.859 21.9693 28.5231 20.9139 29.5846C20.7703 29.7282 20.6159 29.7564 20.4508 29.6692C20.0703 29.4641 19.74 29.1641 19.46 28.7692C19.3523 28.6256 19.2267 28.5538 19.0831 28.5538C18.2323 28.5744 17.3887 28.4641 16.5523 28.2231C15.5041 27.9205 15.5149 27.741 16.5846 27.6846Z" stroke="#808080" stroke-width="2"/>
<path d="M24.9039 39C25.9054 39.2 26.6162 40.8231 27.4346 40.4846C27.4739 40.4683 27.5091 40.4359 27.5357 40.3914C27.5623 40.3469 27.5792 40.2923 27.5843 40.2343C27.5895 40.1762 27.5827 40.1173 27.5647 40.0647C27.5467 40.0122 27.5183 39.9683 27.4831 39.9385L25.1515 37.9846C25.0546 37.9026 25.0564 37.8282 25.1569 37.7615L25.2808 37.6769C25.428 37.5795 25.5626 37.6026 25.6846 37.7461L26.7831 39.0077C26.8286 39.0575 26.8841 39.0853 26.9415 39.0869C26.9988 39.0885 27.055 39.0639 27.1019 39.0167C27.1488 38.9694 27.1839 38.902 27.2021 38.8243C27.2203 38.7466 27.2206 38.6626 27.2031 38.5846C27.0308 37.8974 26.6969 37.4282 26.2015 37.1769C26.0651 37.1103 25.9359 37.0128 25.8139 36.8846C25.681 36.7461 25.5374 36.6077 25.3831 36.4692C25.2144 36.3154 25.2305 36.2461 25.4315 36.2615C25.6074 36.282 25.7833 36.4026 25.9592 36.6231C26.1854 36.9 26.2859 36.8282 26.2608 36.4077C26.2285 35.7718 26.0418 35.2179 25.7008 34.7461C25.6146 34.6282 25.6074 34.4974 25.6792 34.3538L25.8354 34.0615C25.9287 33.8769 26.0526 33.8026 26.2069 33.8385L28.4685 34.3077C28.6228 34.3385 28.7144 34.4641 28.7431 34.6846C28.8077 35.182 29.0249 35.4795 29.3946 35.5769C29.7859 35.6795 29.8792 35.4846 29.6746 34.9923L28.8508 33C28.7144 32.6718 28.5995 32.6846 28.5062 33.0385C28.2369 34.0769 25.0815 32.9615 24.2146 33.0615C23.9956 33.0872 23.9185 32.9487 23.9831 32.6461C24.1195 31.9897 24.4713 31.5333 25.0385 31.2769" stroke="#808080" stroke-width="2"/>
<path d="M25.0385 31.2769C25.717 32.0462 26.4367 32.1974 27.1977 31.7308C27.6034 31.4846 27.5854 31.3846 27.1439 31.4308C26.5013 31.5026 25.8893 31.3872 25.3077 31.0846" stroke="#686868" stroke-width="2"/>
<path d="M25.3077 31.0846C25.5985 30.2692 25.5231 29.618 25.0816 29.1308C24.9272 28.9667 24.7675 28.9513 24.6024 29.0846L21.9316 31.2846C21.7449 31.4385 21.639 31.6667 21.6139 31.9692C21.5134 33.2 21.5762 34.3949 21.8024 35.5539C22.4377 38.8231 22.9008 37.9615 24.4947 39.7077C24.9093 40.1692 27.117 42.7769 27.4293 41.8769C27.5262 41.6051 27.4831 41.3897 27.3 41.2308C26.3093 40.3769 25.6954 40.3462 24.9039 39" stroke="#808080" stroke-width="2"/>
<path d="M25.3077 31.0846L25.0385 31.2769" stroke="#E8E7E7" stroke-width="2"/>
<path d="M24.9039 39C24.947 38.7282 24.9003 38.4923 24.7639 38.2923C24.7372 38.2525 24.7047 38.2215 24.6688 38.2015C24.6328 38.1815 24.5942 38.1731 24.5557 38.1768C24.5172 38.1804 24.4797 38.1961 24.4459 38.2227C24.4121 38.2493 24.3828 38.2862 24.36 38.3308L24.2416 38.5615C24.098 38.8385 24.1482 38.9795 24.3923 38.9846L24.9039 39Z" stroke="#808080" stroke-width="2"/>
<path d="M47.3846 32.6846L47.1154 33.0692" stroke="#686868" stroke-width="2"/>
<path d="M47.1154 33.0692C46.5195 32.7461 45.981 32.8103 45.5 33.2615" stroke="#808080" stroke-width="2"/>
<path d="M45.5 33.2615C44.7175 33.0667 43.9618 33.2487 43.2331 33.8077" stroke="#686868" stroke-width="2"/>
<path d="M43.2331 33.8077C42.28 32.9077 43.8039 31.1308 44.8754 32.2539C44.9903 32.3769 45.098 32.3667 45.1985 32.2231L45.3277 32.0308C45.4893 31.8 45.4605 31.6436 45.2416 31.5615C43.6477 30.9359 42.6067 31.6974 42.1185 33.8462C42.1017 33.9227 42.0995 34.0042 42.1119 34.0824C42.1244 34.1606 42.1511 34.2327 42.1894 34.2913C42.2277 34.3499 42.2762 34.393 42.33 34.4161C42.3837 34.4393 42.4408 34.4417 42.4954 34.4231L43.2116 34.1615" stroke="#808080" stroke-width="2"/>
<path d="M43.2115 34.1615L45.2308 33.4539" stroke="#686868" stroke-width="2"/>
<path d="M45.2308 33.4539L45.5 34.6077" stroke="#808080" stroke-width="2"/>
<path d="M45.5 34.6077L45.2308 34.9308" stroke="#373637" stroke-width="2"/>
<path d="M45.2308 34.9308L43.89 38.5231C43.8003 38.7692 43.8505 38.9282 44.0408 39C44.1162 39.0308 44.1987 39.0308 44.2885 39C44.1987 39.3795 44.0121 39.6539 43.7285 39.8231C43.4126 40.0077 43.409 40.2051 43.7177 40.4154L43.9116 40.5462C44.0695 40.6539 44.2077 40.618 44.3262 40.4385C44.8036 39.7154 45.3744 39.2359 46.0385 39C45.4139 40.0051 44.6798 40.7385 43.8362 41.2C43.7866 41.2278 43.7436 41.2752 43.7123 41.3366C43.6809 41.3981 43.6624 41.471 43.659 41.5469C43.6557 41.6228 43.6675 41.6985 43.6931 41.7651C43.7188 41.8317 43.7572 41.8865 43.8039 41.9231C44.0085 42.0872 44.2149 42.1385 44.4231 42.0769" stroke="#808080" stroke-width="2"/>
<path d="M44.4231 42.0769L43.7231 43.4385C43.6911 43.5022 43.676 43.58 43.6805 43.6582C43.685 43.7363 43.7088 43.8096 43.7476 43.8651C43.7864 43.9205 43.8377 43.9544 43.8924 43.9608C43.9471 43.9672 44.0016 43.9457 44.0462 43.9L48.1708 39.7077C48.4903 39.3846 48.4562 39.241 48.0685 39.2769C47.1962 39.3539 45.4677 41.5231 44.4231 42.0769Z" stroke="#808080" stroke-width="2"/>
<path d="M44.4231 42.0769C45.6544 40.4872 47.0634 39.1897 48.65 38.1846C48.783 38.0975 48.8977 37.9629 48.9827 37.7943C49.0677 37.6256 49.1201 37.4287 49.1346 37.2231C49.1669 36.8128 49.0772 36.5744 48.8654 36.5077C48.6751 36.4513 48.6662 36.3641 48.8385 36.2461C49.1795 36.0256 49.42 35.6615 49.56 35.1538" stroke="#808080" stroke-width="2"/>
<path d="M49.56 35.1538C49.8077 33.9539 49.7592 32.8103 49.4146 31.7231C49.3392 31.4872 49.219 31.3103 49.0539 31.1923C48.5154 30.8154 46.1516 28.4692 45.8823 29.3846" stroke="#686868" stroke-width="2"/>
<path d="M45.8823 29.3846L45.6346 29.6077" stroke="#373637" stroke-width="2"/>
<path d="M45.6347 29.6077C45.4085 29.5154 45.2398 29.3282 45.1285 29.0462C44.9885 28.6923 44.9006 28.718 44.8647 29.1231L44.8162 29.6154C44.7982 29.8359 44.8503 30.0103 44.9723 30.1385L47.3847 32.6846" stroke="#808080" stroke-width="2"/>
<path d="M45.6346 29.6077C46.2485 30.5718 46.9736 31.3308 47.81 31.8846" stroke="#B7B6B7" stroke-width="2"/>
<path d="M47.81 31.8846L47.7831 32.3308C47.7723 32.5103 47.7023 32.6154 47.5731 32.6462C47.5121 32.6564 47.4493 32.6692 47.3846 32.6846" stroke="#E8E7E7" stroke-width="2"/>
<path d="M49.56 35.1539L47.8315 34.4769" stroke="#E8E7E7" stroke-width="2"/>
<path d="M47.8315 34.4769C47.3182 34.641 46.8731 34.341 46.4962 33.5769" stroke="#A09E9F" stroke-width="2"/>
<path d="M46.4962 33.5769L47.2608 33.4077C47.3182 33.3974 47.3254 33.3616 47.2823 33.3L47.1154 33.0692" stroke="#E8E7E7" stroke-width="2"/>
<path d="M47.81 31.8846L47.9608 32.3692C48.0649 32.7026 48.1726 32.7051 48.2839 32.3769C48.65 31.3077 46.4154 29.8308 45.8823 29.3846" stroke="#A09E9F" stroke-width="2"/>
<path d="M46.4962 33.5769C46.4926 34.9051 46.9377 35.2051 47.8316 34.4769" stroke="#B7B6B7" stroke-width="2"/>
<path d="M46.0385 39C46.9718 38.6359 47.7939 37.9667 48.5047 36.9923C48.5801 36.8897 48.5693 36.8128 48.4724 36.7615C48.4185 36.7308 48.3665 36.7103 48.3162 36.7C48.1726 36.6641 48.0577 36.7282 47.9716 36.8923C47.4224 37.9308 46.2593 37.9462 46.0385 39Z" stroke="#808080" stroke-width="2"/>
<path d="M44.2885 39C44.9418 38.9077 45.4965 38.5077 45.9524 37.8C46.0062 37.718 45.999 37.6462 45.9308 37.5846L45.7908 37.4692C45.7226 37.4128 45.658 37.4205 45.597 37.4923L44.2885 39Z" stroke="#808080" stroke-width="2"/>
<path d="M45.2308 34.9308L46.9808 36.1462" stroke="#B7B6B7" stroke-width="2"/>
<path d="M46.9808 36.1461V36.5" stroke="#808080" stroke-width="2"/>
<path d="M46.9808 36.5L46.1193 37.0692C46.0839 37.0883 46.0545 37.1251 46.0367 37.1728C46.0189 37.2204 46.0137 37.2757 46.0223 37.3284C46.0308 37.381 46.0525 37.4274 46.0832 37.459C46.1139 37.4906 46.1516 37.5051 46.1893 37.5C46.6775 37.4692 46.9413 37.1359 46.9808 36.5Z" stroke="#808080" stroke-width="2"/>
<path d="M46.9808 36.5C47.5587 36.5564 48.0451 36.2564 48.44 35.6C48.5441 35.4257 48.5154 35.341 48.3539 35.3462C48.2928 35.3462 48.2264 35.3462 48.1546 35.3462C48.0792 35.3462 48.0272 35.3949 47.9985 35.4923C47.8513 36.041 47.5569 36.2385 47.1154 36.0846" stroke="#808080" stroke-width="2"/>
<path d="M47.1154 36.0846C46.7779 35.141 46.2395 34.6487 45.5 34.6077" stroke="#B7B6B7" stroke-width="2"/>
<path d="M45.2308 33.4538L45.5 33.2615" stroke="#E8E7E7" stroke-width="2"/>
<path d="M47.1154 36.0846C47.0723 36.1051 47.0274 36.1257 46.9808 36.1462" stroke="#373637" stroke-width="2"/>
<path d="M43.2331 33.8077L43.2115 34.1615" stroke="#E8E7E7" stroke-width="2"/>
<path d="M42.0629 29.2196C42.0359 29.1729 41.9912 29.1478 41.9314 29.1458C41.8715 29.1438 41.7978 29.1649 41.7143 29.2079C41.6309 29.251 41.5393 29.315 41.4449 29.3965C41.3505 29.478 41.255 29.5753 41.164 29.6828C40.9803 29.9 40.8258 30.1458 40.7344 30.366C40.6431 30.5863 40.6225 30.763 40.6771 30.8573C40.7042 30.904 40.7489 30.9291 40.8087 30.9311C40.8685 30.9331 40.9422 30.912 41.0257 30.869C41.1091 30.8259 41.2007 30.7619 41.2951 30.6804C41.3895 30.5989 41.485 30.5016 41.576 30.3941C41.7597 30.1769 41.9143 29.9312 42.0056 29.7109C42.0969 29.4906 42.1175 29.3139 42.0629 29.2196Z" stroke="#808080" stroke-width="2"/>
<path d="M50.0662 29.3692C50.1057 29.8256 50.2869 30.0692 50.61 30.1C50.8326 30.1205 50.8972 29.9872 50.8039 29.7C50.7572 29.5615 50.698 29.4513 50.6262 29.3692C50.2098 28.9026 50.0231 28.9026 50.0662 29.3692Z" stroke="#808080" stroke-width="2"/>
<path d="M29.342 31.823C29.361 31.7853 29.3572 31.7247 29.3309 31.6447C29.3046 31.5646 29.2563 31.4667 29.1886 31.3565C29.1209 31.2463 29.0353 31.1259 28.9366 31.0023C28.838 30.8787 28.7281 30.7543 28.6134 30.6361C28.4987 30.5179 28.3814 30.4083 28.2681 30.3135C28.1549 30.2188 28.0479 30.1407 27.9533 30.0838C27.8588 30.0269 27.7785 29.9922 27.717 29.9818C27.6555 29.9714 27.6141 29.9855 27.5951 30.0231C27.576 30.0608 27.5798 30.1214 27.6061 30.2015C27.6324 30.2815 27.6808 30.3794 27.7484 30.4897C27.8161 30.5999 27.9017 30.7202 28.0004 30.8438C28.0991 30.9674 28.2089 31.0919 28.3236 31.2101C28.4383 31.3283 28.5556 31.4379 28.6689 31.5326C28.7822 31.6274 28.8891 31.7054 28.9837 31.7624C29.0782 31.8193 29.1586 31.8539 29.22 31.8643C29.2815 31.8747 29.3229 31.8607 29.342 31.823Z" stroke="#808080" stroke-width="2"/>
<path d="M28.4362 46.5846C24.1662 44.5846 19.0831 39.7615 19.7723 32.3154C19.7939 32.0743 19.7616 31.8487 19.6754 31.6385C19.4923 31.2026 19.3398 31.0718 19.2177 31.2461C19.0562 31.4718 18.9664 31.6641 18.9485 31.8231C17.99 39.8 23.3154 45.4923 28.2423 47.2538C28.2962 47.2743 28.3429 47.2564 28.3823 47.2L28.5062 47.0231C28.6498 46.8179 28.6264 46.6718 28.4362 46.5846Z" stroke="#808080" stroke-width="2"/>
<path d="M27.5882 43.7768C27.6088 43.7332 27.6231 43.6843 27.6305 43.6328C27.6378 43.5813 27.6379 43.5283 27.6309 43.4767C27.6239 43.4252 27.6098 43.3761 27.5895 43.3323C27.5692 43.2885 27.5431 43.2508 27.5126 43.2215L23.7092 39.5566C23.6477 39.4973 23.5722 39.4754 23.4993 39.4956C23.4264 39.5158 23.3621 39.5766 23.3206 39.6645L23.2965 39.7155C23.2759 39.7591 23.2615 39.808 23.2542 39.8595C23.2469 39.911 23.2467 39.964 23.2537 40.0156C23.2608 40.0671 23.2748 40.1162 23.2951 40.16C23.3154 40.2038 23.3416 40.2415 23.3721 40.2708L27.1754 43.9357C27.237 43.995 27.3125 44.0169 27.3854 43.9967C27.4583 43.9765 27.5226 43.9157 27.5641 43.8278L27.5882 43.7768Z" stroke="#808080" stroke-width="2"/>
<path d="M43.0392 45.0692L43.05 40.5769C43.05 40.5422 43.0404 40.509 43.0232 40.4845C43.006 40.4599 42.9828 40.4462 42.9585 40.4462H42.9154C42.8139 40.445 42.7133 40.4849 42.6193 40.5636C42.5253 40.6423 42.4399 40.7583 42.3678 40.9048C42.2957 41.0514 42.2385 41.2256 42.1994 41.4175C42.1603 41.6094 42.1401 41.8152 42.14 42.0231V43.6231C42.1398 44.0398 42.22 44.4395 42.3633 44.735C42.5066 45.0304 42.7012 45.1976 42.9046 45.2H42.9477C42.972 45.2 42.9953 45.1862 43.0124 45.1617C43.0296 45.1372 43.0392 45.1039 43.0392 45.0692Z" stroke="#808080" stroke-width="2"/>
<path d="M34.1762 51.2308L38.5916 51.2846C38.7388 51.2846 38.8339 51.182 38.877 50.9769L39.0816 50C39.139 49.7282 39.069 49.5872 38.8716 49.5769C37.2275 49.459 35.639 49.8436 34.1062 50.7308C34.0684 50.755 34.0375 50.7969 34.0185 50.8496C33.9995 50.9022 33.9936 50.9625 34.0017 51.0206C34.0099 51.0787 34.0315 51.1311 34.0632 51.1693C34.0949 51.2075 34.1348 51.2291 34.1762 51.2308Z" stroke="#686868" stroke-width="2"/>
<path d="M35.07 52.0385C35.0186 52.0722 34.9752 52.1267 34.9451 52.1953C34.915 52.2638 34.8996 52.3434 34.9008 52.4243C34.9019 52.5051 34.9195 52.5838 34.9515 52.6505C34.9835 52.7173 35.0284 52.7692 35.0808 52.8C35.4505 53.0154 35.8113 53.0282 36.1631 52.8385C36.4395 52.6949 36.4646 52.4897 36.2385 52.2231C35.8939 51.8179 35.5044 51.7564 35.07 52.0385Z" stroke="#808080" stroke-width="2"/>
<path d="M32.1516 24.3846C32.3921 25.4308 32.848 25.741 33.5192 25.3154" stroke="#B7B6B7" stroke-width="2"/>
<path d="M33.5193 25.3154C33.8747 26.1051 34.2947 26.5051 34.7793 26.5154C34.9875 26.5205 35.1275 26.3846 35.1993 26.1077L35.5493 24.8154C35.6354 24.5026 35.5601 24.3615 35.3231 24.3923L33.5193 24.6077" stroke="#808080" stroke-width="2"/>
<path d="M33.5192 24.6077C33.1746 24.6538 32.9951 24.4615 32.9808 24.0308" stroke="#B7B6B7" stroke-width="2"/>
<path d="M32.9808 24.0308C33.767 23.7436 34.1636 23.0872 34.1708 22.0615C34.178 21.4308 34.0362 21.3539 33.7454 21.8308C33.1495 22.8154 32.4136 23.4077 31.5377 23.6077C31.308 23.6641 31.2757 23.8077 31.4408 24.0385C31.6346 24.3103 31.8716 24.4257 32.1516 24.3846" stroke="#808080" stroke-width="2"/>
<path d="M32.9808 24.0308C32.5895 23.8154 32.3131 23.9333 32.1516 24.3846" stroke="#373637" stroke-width="2"/>
<path d="M33.5193 24.6077V25.3154" stroke="#373637" stroke-width="2"/>
<path d="M30.1754 21.9769C29.3677 21.6692 28.8293 22.0026 28.56 22.9769C28.4703 23.2949 28.5403 23.5051 28.77 23.6077C29.4054 23.8897 29.9403 23.7564 30.3746 23.2077C30.4432 23.1225 30.4942 23.0122 30.5223 22.8888C30.5503 22.7653 30.5543 22.6333 30.5338 22.5068C30.5134 22.3803 30.4692 22.2642 30.4061 22.1709C30.3429 22.0775 30.2632 22.0105 30.1754 21.9769Z" stroke="#808080" stroke-width="2"/>
<path d="M35.9726 32.7664C35.9749 32.6846 35.9659 32.603 35.9461 32.5262C35.9264 32.4494 35.8962 32.3789 35.8573 32.3188C35.8185 32.2587 35.7718 32.2101 35.7198 32.1757C35.6678 32.1414 35.6115 32.122 35.5543 32.1188L35.479 32.1145C35.3634 32.1078 35.2507 32.1671 35.1657 32.2791C35.0807 32.3912 35.0304 32.5469 35.0257 32.712L34.9751 34.5105C34.9728 34.5923 34.9818 34.6739 35.0016 34.7507C35.0214 34.8275 35.0516 34.898 35.0904 34.9581C35.1292 35.0182 35.176 35.0668 35.228 35.1012C35.28 35.1355 35.3362 35.1549 35.3934 35.1581L35.4688 35.1625C35.5843 35.1691 35.697 35.1098 35.782 34.9978C35.867 34.8857 35.9174 34.73 35.922 34.5649L35.9726 32.7664Z" stroke="#808080" stroke-width="2"/>
<path d="M23.3424 31.6539C23.6277 31.4846 24.9039 30.6923 24.7639 30.1077C24.7101 29.8821 24.6131 29.8333 24.4731 29.9616C24.0585 30.3616 22.497 31.4 22.5077 32.0923C22.5113 32.3026 22.5867 32.4231 22.7339 32.4539L22.9816 32.5C23.0893 32.5205 23.1449 32.4513 23.1485 32.2923C23.1521 32.2154 23.1539 32.141 23.1539 32.0692C23.1539 31.8692 23.2167 31.7308 23.3424 31.6539Z" stroke="#B7B6B7" stroke-width="2"/>
<path d="M22.1739 33.4C22.4359 33.9744 22.7769 34.3539 23.1969 34.5385C23.4411 34.6513 23.4769 34.5718 23.3046 34.3C23.0139 33.8333 22.6639 33.4872 22.2546 33.2616C22.1218 33.1846 22.0949 33.2308 22.1739 33.4Z" stroke="#B7B6B7" stroke-width="2"/>
<path d="M24.3977 33.8846C24.509 34.3769 24.7298 34.6949 25.06 34.8385C25.2575 34.9257 25.2862 34.8616 25.1462 34.6462L24.5592 33.7539C24.369 33.4616 24.3151 33.5051 24.3977 33.8846Z" stroke="#B7B6B7" stroke-width="2"/>
<path d="M23.8754 36.0923C23.6815 36.2154 22.4485 34.7769 22.05 34.6077C21.6695 34.4436 21.6444 34.5205 21.9746 34.8385L23.8646 36.6385C23.9508 36.7205 24.01 36.6923 24.0423 36.5538C24.0567 36.4718 24.0746 36.3897 24.0962 36.3077C24.1751 36.0154 24.1015 35.9436 23.8754 36.0923Z" stroke="#808080" stroke-width="2"/>
<path d="M23.4446 37.5C23.3046 37.1103 23.1198 36.8462 22.89 36.7077C22.1003 36.2462 22.0554 36.4282 22.7554 37.2539C23.1323 37.6949 23.5487 37.9923 24.0046 38.1462C24.0657 38.1667 24.0962 38.1334 24.0962 38.0462C24.0962 37.9795 24.0962 37.9103 24.0962 37.8385C24.0998 37.7616 24.01 37.7051 23.8269 37.6692C23.7659 37.6539 23.7067 37.6513 23.6492 37.6616C23.5523 37.6769 23.4841 37.6231 23.4446 37.5Z" stroke="#808080" stroke-width="2"/>
<path d="M45.387 36.1154C45.2865 36.5205 45.0908 36.7539 44.8 36.8154C44.3011 36.918 44.2311 37.0539 44.59 37.2231L44.7785 37.3077C44.9329 37.3795 45.0513 37.318 45.1339 37.1231C45.3098 36.7231 45.5593 36.5923 45.8824 36.7308C46.0798 36.818 46.1372 36.7256 46.0547 36.4539L45.9416 36.0923C45.7406 35.4513 45.5557 35.459 45.387 36.1154Z" stroke="#808080" stroke-width="2"/>
<path d="M38.7692 61.8538L38.4784 61.6923L37.8484 55.1539L37.9831 54.7692C38.2954 55.2051 38.3564 55.6205 38.1661 56.0154C38.1226 56.1073 38.0979 56.2148 38.0951 56.3258C38.0922 56.4367 38.1113 56.5466 38.15 56.6428C38.1887 56.739 38.2456 56.8178 38.3142 56.87C38.3827 56.9223 38.4601 56.946 38.5377 56.9385C47.1531 56.0538 61.2931 48.9615 61.3038 33.5C61.3092 24.0154 54.9823 16.9692 49.1454 13.8154C40.3074 9.04103 31.43 8.93077 22.5131 13.4846C17.5107 16.0385 12.1315 21.5154 10.4031 28.8539C8.90613 35.2231 10.8231 42.3154 14.2477 46.7154C19.3361 53.2462 26.2015 56.2462 32.9538 57.0154C33.2195 57.0462 33.3595 56.8718 33.3738 56.4923L33.4061 55.5077C33.4169 55.1949 33.5174 54.9615 33.7077 54.8077L34.6177 54.0769C34.7684 53.959 34.7846 53.8103 34.6661 53.6308C34.0666 52.7385 33.3738 52.0744 32.5877 51.6385C32.3938 51.5359 32.2538 51.3487 32.1677 51.0769C32.0923 50.8462 31.9451 50.6718 31.7261 50.5538C31.5466 50.4564 31.3618 50.4 31.1715 50.3846C30.2884 50.3154 28.2207 50.6231 28.1615 48.7846C28.1507 48.518 28.0574 48.341 27.8815 48.2539C22.7338 45.6923 16.7784 40.3846 18.1084 31.1462C18.1515 30.859 18.0743 30.6769 17.8769 30.6C16.1969 29.9282 14.9064 28.5333 14.0054 26.4154C13.9391 26.2596 13.9146 26.0748 13.9364 25.8952C13.9581 25.7156 14.0247 25.5533 14.1238 25.4385C14.7556 24.7 15.47 24.2205 16.2669 24C16.9059 24.6103 17.3995 24.418 17.7477 23.4231C18.9287 22.8487 20.0954 22.8718 21.2477 23.4923C21.7107 23.7462 22.1792 23.5 22.2384 22.7539C22.2672 22.4051 22.1577 22.2333 21.91 22.2385C21.0161 22.2641 20.571 21.6513 20.5746 20.4C20.5782 20.159 20.632 19.9436 20.7361 19.7539C22.0033 17.518 23.6492 16.3462 25.6738 16.2385C25.8533 16.2282 25.9897 16.3333 26.0831 16.5539C26.2697 17 26.1943 17.4128 25.8569 17.7923C25.7169 17.9513 25.559 18.0487 25.3831 18.0846C25.0313 18.1564 24.7046 18.3051 24.4031 18.5308C23.8646 18.9359 23.8987 19.159 24.5054 19.2C27.3484 19.3769 30.6007 17.9846 32.5554 17.7231C35.5707 17.318 38.5718 17.5359 41.5584 18.3769C43.0231 18.7923 45.0154 20.0308 47.1154 19.9923L45.0046 20.1308C44.8179 20.141 44.6438 20.2077 44.4823 20.3308C43.1972 21.3 41.9102 21.3718 40.6215 20.5462C40.2051 20.2846 40.1297 20.4154 40.3954 20.9385L40.9015 21.9539C41.0631 22.2718 41.02 22.5205 40.7723 22.7C40.04 23.2333 39.3454 23.1974 38.6884 22.5923C38.3654 22.2897 38.3007 22.3795 38.4946 22.8615L38.7961 23.6154C38.9182 23.918 38.8572 24.0539 38.6131 24.0231C37.6366 23.9205 37.0838 23.1692 36.9546 21.7692C36.9295 21.4923 36.8182 21.3513 36.6207 21.3462C36.2618 21.3359 36.0087 21.1564 35.8615 20.8077C35.6641 20.341 35.752 20.1718 36.1254 20.3C36.5561 20.4436 36.96 20.4026 37.3369 20.1769C37.7282 19.9462 37.7354 19.6949 37.3584 19.4231C36.7302 18.9667 36.0823 18.8564 35.4146 19.0923C35.2351 19.1539 35.1184 19.3103 35.0646 19.5615C34.9784 19.9462 34.7936 20.2 34.51 20.3231C34.3161 20.4051 34.1349 20.3667 33.9661 20.2077C32.3974 18.6897 30.7443 18.5769 29.0069 19.8692C28.8382 19.9923 28.6587 20.0308 28.4684 19.9846C27.6177 19.7615 23.2831 18.7 23.9184 20.5615C24.001 20.8077 24.1392 20.9359 24.3331 20.9462L27.4992 21.1154C27.6643 21.1205 27.7415 21.2436 27.7307 21.4846L27.6177 23.9923C27.6033 24.2898 27.6931 24.4897 27.8869 24.5923C28.5402 24.941 28.849 25.6333 28.8131 26.6692C28.8023 26.9615 28.8956 27.1436 29.0931 27.2154C30.5756 27.7795 31.552 29.0898 32.0223 31.1462C32.0761 31.3667 32.0582 31.5769 31.9684 31.7769C31.8248 32.0898 31.7764 32.4154 31.8231 32.7539C31.8697 33.0923 31.9846 33.1487 32.1677 32.9231L32.5284 32.4769C32.7223 32.241 32.8461 32.3 32.9 32.6539C33.1423 34.2 33.2446 42.7538 31.3923 41.8923C31.2236 41.8154 31.089 41.6744 30.9884 41.4692L30.1377 39.7769C30.0049 39.5103 29.8361 39.4513 29.6315 39.6C28.1202 40.6872 27.7236 42.4231 28.4415 44.8077C28.5061 45.018 28.5995 45.1949 28.7215 45.3385C29.4646 46.2 29.4484 47.0769 28.6731 47.9692C28.6029 48.0511 28.5511 48.1609 28.5242 48.2847C28.4972 48.4084 28.4964 48.5405 28.5218 48.6642C28.5472 48.7878 28.5976 48.8975 28.6668 48.9792C28.7359 49.0609 28.8205 49.111 28.91 49.1231L30.9669 49.4077C31.15 49.4333 31.3223 49.3846 31.4838 49.2615L33.7884 47.4846C33.9787 47.3359 33.9769 47.1974 33.7831 47.0692C33.0507 46.5923 31.3115 46.9385 31.3546 45.4385C31.3573 45.3619 31.3729 45.2874 31.4 45.2213C31.4272 45.1552 31.465 45.0994 31.5105 45.0587C31.5559 45.0179 31.6076 44.9934 31.661 44.9872C31.7145 44.981 31.7682 44.9933 31.8177 45.0231L34.1707 46.4231C34.2641 46.4795 34.3377 46.5692 34.3915 46.6923L34.4723 46.8923C34.6302 47.2718 34.8618 47.4154 35.1669 47.3231C35.8418 47.118 36.4915 47.2 37.1161 47.5692C37.3028 47.6821 37.4051 47.5949 37.4231 47.3077C37.441 47.0051 37.3584 46.7897 37.1754 46.6615C36.6656 46.2872 36.7787 46.1564 37.5146 46.2692C38.29 46.3821 38.8948 45.9462 39.3292 44.9615L40.25 45.3769C39.8874 46.1667 39.41 46.8154 38.8177 47.3231C38.2325 47.8256 38.272 47.9667 38.9361 47.7462C39.8551 47.4436 40.5192 46.659 40.9284 45.3923C40.9895 45.2128 40.95 45.1308 40.81 45.1462L40.5192 45.1846C40.1207 44.4 39.5823 44.2513 38.9038 44.7385C36.829 45.5897 34.7828 45.5513 32.7654 44.6231C31.7854 44.1769 31.2846 44.2923 30.7407 45.4692C30.6556 45.6545 30.6197 45.877 30.6394 46.0959C30.6592 46.3148 30.7334 46.5156 30.8484 46.6615L31.7531 47.8C31.8428 47.9128 31.8446 48.0282 31.7584 48.1462C31.7261 48.1923 31.692 48.2436 31.6561 48.3C31.6023 48.3872 31.5431 48.3923 31.4784 48.3154L30.0354 46.6077C29.8846 46.4282 29.8631 46.2231 29.9707 45.9923L30.8861 44C30.9866 43.7795 31.1284 43.6744 31.3115 43.6846C33.0346 43.7539 34.5046 44.8846 36.1092 44.7C37.7569 44.5154 40.4923 42.6077 41.2784 45.5077C41.3395 45.7282 41.3161 45.9282 41.2084 46.1077L40.5838 47.1462C40.5443 47.2128 40.5228 47.2923 40.5192 47.3846C40.5192 47.4564 40.5192 47.5282 40.5192 47.6C40.5156 47.7795 40.5784 47.8744 40.7077 47.8846L42.3554 48.0077C42.5277 48.018 42.6749 47.9359 42.7969 47.7615L42.9692 47.5154C43.1272 47.2949 43.12 47.0846 42.9477 46.8846C41.1564 44.8282 40.801 42.3308 41.8815 39.3923C41.9104 39.3087 41.9192 39.2138 41.9064 39.1223C41.8937 39.0308 41.8601 38.948 41.811 38.8866C41.7619 38.8251 41.6999 38.7886 41.6348 38.7827C41.5696 38.7768 41.5049 38.8018 41.4507 38.8539C40.6323 39.6923 40.5838 41.4923 39.5392 42C39.3418 42.0923 39.1946 42.0077 39.0977 41.7462C37.5146 37.5974 37.4625 33.4154 38.9415 29.2C39.0277 28.959 39.1623 28.8231 39.3454 28.7923C40.5802 28.5667 41.5513 27.7282 42.2584 26.2769C42.3733 26.041 42.3733 25.8026 42.2584 25.5615C41.9031 24.8231 41.3933 24.4974 40.7292 24.5846C40.4456 24.6256 40.3864 24.4821 40.5515 24.1539C41.1546 22.959 41.8366 22.6846 42.5977 23.3308C42.8813 23.5718 42.9656 23.4718 42.8507 23.0308L42.6677 22.3462C42.5815 22.0282 42.6587 21.8564 42.8992 21.8308C43.9707 21.7385 48.0092 21.9923 48.4346 20.5231C48.51 20.2667 48.4525 20.0974 48.2623 20.0154C48.011 19.9128 47.7741 19.8897 47.5515 19.9462C47.6664 19.0846 47.4366 18.8154 46.8623 19.1385C46.6648 19.2462 46.5284 19.1564 46.4531 18.8692L46.2 17.9231C46.1282 17.6462 46.1928 17.4667 46.3938 17.3846C47.4205 16.9692 48.3448 17.0923 49.1669 17.7538C49.7915 18.9436 50.6405 19.4872 51.7138 19.3846C51.8574 19.5231 51.9651 19.7154 52.0369 19.9615C52.2631 20.6846 52.1087 21.1564 51.5738 21.3769L49.0161 22.4385C48.7828 22.5359 48.729 22.7333 48.8546 23.0308C49.0915 23.6051 49.4469 23.7359 49.9207 23.4231L49.9638 23.8077C48.711 24.7615 47.2231 25.1282 45.5 24.9077C44.8359 24.8256 44.4356 25.2333 44.2992 26.1308C44.249 26.4692 44.3423 26.6 44.5792 26.5231L45.3492 26.2846C45.5359 26.2231 45.692 26.2974 45.8177 26.5077C46.2484 27.2385 48.4184 30.2923 49.07 29.9615C49.2961 29.8487 49.3141 29.6846 49.1238 29.4692L47.8261 28.0231C47.7077 27.8897 47.6502 27.7154 47.6538 27.5C47.6538 27.4282 47.6538 27.359 47.6538 27.2923C47.6502 26.9026 47.7777 26.7718 48.0361 26.9L49.0861 27.4154C49.359 27.5487 49.4469 27.4205 49.35 27.0308L49.1884 26.4C49.0951 26.0308 49.1795 25.9 49.4415 26.0077L50.6154 26.4692L51.2884 24.6077C51.4823 24.4333 51.5756 24.1744 51.5684 23.8308C51.5684 23.5846 51.6546 23.4692 51.8269 23.4846C53.0079 23.5769 54.0454 24.1821 54.9392 25.3C53.55 26.0077 51.5092 25.6692 51.0246 28.1923C50.9707 28.4795 51.0138 28.7333 51.1538 28.9539C51.5451 29.5744 51.651 30.2333 51.4715 30.9308C51.4033 31.1821 51.3782 31.4436 51.3961 31.7154C51.9184 39.1846 48.0631 43.8462 43.5992 46.1308C43.4592 46.2077 43.3515 46.3385 43.2761 46.5231C43.2402 46.6103 43.2061 46.6949 43.1738 46.7769C43.1562 46.8179 43.1477 46.8655 43.1494 46.9136C43.1511 46.9616 43.1629 47.0077 43.1833 47.046C43.2036 47.0843 43.2316 47.1128 43.2636 47.128C43.2955 47.1431 43.3299 47.1441 43.3623 47.1308C48.7361 44.8231 54.0938 38.4539 51.7677 29.5077C51.738 29.3897 51.7279 29.2635 51.7383 29.1391C51.7486 29.0147 51.7792 28.8956 51.8274 28.7916C51.8756 28.6875 51.9401 28.6014 52.0158 28.54C52.0915 28.4787 52.1762 28.4439 52.2631 28.4385C52.8661 28.3923 53.1892 27.9436 53.2323 27.0923C53.2502 26.7436 53.3795 26.6 53.62 26.6615C54.2948 26.8308 54.8261 26.5846 55.2138 25.9231C55.6051 25.8769 55.8223 25.6487 55.8654 25.2385C55.8977 24.9718 55.8366 24.7564 55.6823 24.5923L54.9446 23.8077C55.641 23.7205 56.2279 24.0436 56.7054 24.7769C56.8561 25.0026 56.8705 25.241 56.7484 25.4923C55.8295 27.4 54.6359 28.8385 53.1677 29.8077C52.9774 29.9308 52.9092 30.1385 52.9631 30.4308C54.53 39.2154 49.0754 45.6231 43.8738 47.8769C43.6943 47.9539 43.5454 48.0974 43.4269 48.3077C42.6766 49.641 41.6715 50.2897 40.4115 50.2538C40.2069 50.2487 40.0579 50.3744 39.9646 50.6308C39.6451 51.5231 39.1246 51.9436 38.4031 51.8923C38.2236 51.8769 38.0566 51.9359 37.9023 52.0692C37.3531 52.541 36.9313 53.1846 36.6369 54L37.0407 54.9615L37.7138 61.8846L37.6654 62.2231C37.6438 62.3769 37.6869 62.4538 37.7946 62.4538L38.7692 62.4923L35.4038 62.6231L35.3984 56.0462C35.3985 55.9603 35.382 55.876 35.3509 55.8026C35.3197 55.7292 35.275 55.6694 35.2217 55.6297C35.1684 55.59 35.1085 55.572 35.0485 55.5776C34.9885 55.5832 34.9307 55.6123 34.8815 55.6615C34.3 56.2462 34.3269 60.8615 34.23 62.0615C34.2084 62.3282 34.2928 62.459 34.4831 62.4538C34.7164 62.4436 34.9336 62.5 35.1346 62.6231L32.8407 62.6077C32.5859 62.6026 32.4872 62.4256 32.5446 62.0769L32.8515 60.1308C32.8645 60.0479 32.8621 59.9617 32.8444 59.8807C32.8267 59.7996 32.7945 59.7266 32.7509 59.669C32.7072 59.6113 32.6538 59.5711 32.5959 59.5522C32.5379 59.5334 32.4775 59.5366 32.4207 59.5615L29.7823 60.7615C29.5705 60.859 29.3731 60.8154 29.19 60.6308L27.3215 58.7692C27.1492 58.6 26.9607 58.5385 26.7561 58.5846L24.01 59.2308C23.809 59.2769 23.6402 59.1923 23.5038 58.9769L22.0823 56.7462C21.9423 56.5256 21.77 56.4256 21.5654 56.4462L18.8407 56.7231C18.6361 56.7436 18.48 56.6282 18.3723 56.3769L17.3869 54.0615C17.2684 53.7846 17.0961 53.6333 16.87 53.6077L14.0269 53.2462C13.869 53.2256 13.7756 53.1051 13.7469 52.8846L13.4346 50.4308C13.3987 50.1487 13.2838 49.9795 13.09 49.9231L10.4192 49.1C10.1859 49.0282 10.0746 48.8231 10.0854 48.4846L10.1392 46.5769C10.1572 45.9769 9.9669 45.5744 9.56844 45.3692L7.53844 44.3308C7.32665 44.2231 7.26562 44.0231 7.35536 43.7308L8.04998 41.5154C8.16126 41.1513 8.09306 40.8769 7.84536 40.6923L5.75613 39.1615C5.55152 39.0128 5.5228 38.8128 5.66998 38.5615L6.91921 36.4539C7.0628 36.2077 7.05023 35.9821 6.88152 35.7769L5.16382 33.7308C4.99152 33.5256 4.99511 33.3256 5.17459 33.1308L6.94075 31.1846C7.11665 30.9897 7.13459 30.7718 6.99459 30.5308L5.86921 28.5462C5.75434 28.3513 5.77408 28.1897 5.92844 28.0615L7.80767 26.5154C7.94966 26.3975 8.05751 26.2111 8.11181 25.9896C8.1661 25.7682 8.16327 25.5264 8.10382 25.3077L7.60306 23.4769C7.52049 23.1692 7.58511 22.9564 7.7969 22.8385L10.1823 21.5231C10.3833 21.4154 10.4749 21.2103 10.4569 20.9077L10.3384 18.5462C10.3277 18.3103 10.4031 18.1667 10.5646 18.1154L13.2461 17.3077C13.4472 17.2462 13.571 17.0718 13.6177 16.7846L14.0054 14.4C14.0448 14.1385 14.1579 13.9949 14.3446 13.9692C15.1487 13.8667 15.9384 13.7795 16.7138 13.7077C18.6254 13.5385 17.6669 10.1692 19.6431 10.6308C20.4328 10.8154 21.2243 10.8231 22.0177 10.6539C22.1972 10.618 22.3443 10.5026 22.4592 10.3077L23.6923 8.27693C23.8323 8.05129 24.0046 7.96667 24.2092 8.02308L27.0361 8.76154C27.23 8.81282 27.4077 8.75129 27.5692 8.57693L29.3569 6.68462C29.5184 6.51026 29.6961 6.46411 29.89 6.54616L32.5661 7.66154C32.7707 7.74872 32.97 7.72308 33.1638 7.58462L35.2961 6.11539C35.4756 5.98718 35.6551 5.98462 35.8346 6.1077L38.1231 7.61539C38.3205 7.74872 38.5233 7.76924 38.7315 7.67693L40.9931 6.67693C41.1689 6.59488 41.3341 6.63077 41.4884 6.78462L43.3784 8.63847C43.5436 8.79744 43.7248 8.85385 43.9223 8.8077L46.7007 8.14616C46.8623 8.10513 46.9987 8.1718 47.11 8.34616L48.4615 10.4077C48.5979 10.6231 48.7684 10.7308 48.9731 10.7308H51.9077C52.1266 10.7308 52.2918 10.8641 52.4031 11.1308L53.2754 13.2154C53.3795 13.4667 53.532 13.6026 53.7331 13.6231L56.6192 13.9539C56.7772 13.9744 56.8705 14.0949 56.8992 14.3154L57.1954 16.6C57.2384 16.9333 57.3766 17.1359 57.61 17.2077L60.3131 18.0385C60.5356 18.1103 60.6361 18.3077 60.6146 18.6308L60.4531 20.8154C60.4315 21.118 60.5213 21.3231 60.7223 21.4308L63.1669 22.7462C63.3715 22.8539 63.4289 23.0487 63.3392 23.3308L62.6877 25.4846C62.5836 25.8282 62.6482 26.0898 62.8815 26.2692L64.9492 27.8231C65.1897 28.0026 65.2202 28.2359 65.0407 28.5231L63.8831 30.3846C63.846 30.4446 63.8177 30.5147 63.8 30.5907C63.7824 30.6668 63.7756 30.7474 63.7801 30.8277C63.7846 30.9079 63.8003 30.9863 63.8263 31.0582C63.8523 31.1301 63.8881 31.194 63.9315 31.2462L65.4607 33.0615C65.5068 33.1155 65.5436 33.1837 65.5685 33.261C65.5935 33.3384 65.6059 33.4229 65.6048 33.5085C65.6038 33.5941 65.5894 33.6785 65.5626 33.7556C65.5358 33.8327 65.4973 33.9004 65.45 33.9539L63.9154 35.6539C63.7251 35.8692 63.709 36.1103 63.8669 36.3769L65.1861 38.5846C65.2167 38.6368 65.2388 38.698 65.2508 38.7639C65.2629 38.8297 65.2646 38.8986 65.2559 38.9654C65.2471 39.0323 65.2281 39.0956 65.2002 39.1508C65.1724 39.206 65.1363 39.2517 65.0946 39.2846L62.9892 40.9462C62.7882 41.1051 62.7397 41.3308 62.8438 41.6231L63.5815 43.7462C63.6856 44.0436 63.6282 44.2513 63.4092 44.3692L60.9054 45.7231C60.7295 45.8205 60.6523 46 60.6738 46.2615L60.8569 48.5923C60.8784 48.8487 60.8013 49.0051 60.6254 49.0615L57.8792 49.9385C57.6495 50.0154 57.5131 50.218 57.47 50.5462L57.19 52.6923C57.1469 53.0257 57.0087 53.2051 56.7754 53.2308L53.9054 53.5923C53.7043 53.618 53.5572 53.7564 53.4638 54.0077L52.6454 56.2385C52.5721 56.4359 52.4531 56.5907 52.3086 56.6763C52.1642 56.7619 52.0034 56.773 51.8538 56.7077C49.9692 55.8872 48.519 56.5949 47.5031 58.8308C47.3918 59.0718 47.2356 59.1718 47.0346 59.1308L43.9331 58.4846C43.7679 58.4487 43.619 58.5051 43.4861 58.6539L41.7523 60.5615C41.5872 60.741 41.4059 60.7846 41.2084 60.6923L39.1677 59.7539C38.9307 59.641 38.8087 59.7641 38.8015 60.1231L38.7692 61.8538ZM32.8354 57.3462C23.8431 57.0385 8.06613 48.7769 9.22921 32.1385C10.0961 19.8231 19.9877 12.9923 27.3161 10.7769C31.2146 9.59231 37.2992 9.62308 40.9607 10.0769C49.6515 11.1385 64.8577 21.3692 61.5192 37.9231C58.9184 50.8077 47.0723 56.7231 38.8177 57.5385C38.6202 57.559 38.5664 57.7436 38.6561 58.0923C38.6794 58.1835 38.7225 58.2614 38.7789 58.3141C38.8352 58.3669 38.9018 58.3916 38.9684 58.3846C47.6431 57.5615 60.7384 50.8231 62.6931 36.6769C64.1469 26.1846 57.5184 16.7769 51.2023 13.1308C40.8638 7.16154 30.6187 7.06411 20.4669 12.8385C10.43 18.5385 3.43536 33.6154 12.6215 47C17.5484 54.1692 25.3831 57.8538 32.4692 58.3308C32.5948 58.341 32.7151 58.3128 32.83 58.2462C33.0561 58.1077 33.1531 57.9205 33.1207 57.6846C33.0884 57.4641 32.9933 57.3513 32.8354 57.3462ZM33.4815 18.7385C33.8548 18.8256 34.23 18.8513 34.6069 18.8154C34.9443 18.7846 34.9695 18.6436 34.6823 18.3923C34.3269 18.0795 33.9159 18.0641 33.4492 18.3462C33.1369 18.5359 33.1477 18.6667 33.4815 18.7385ZM46.5984 23.2462L48.0631 24.3154C48.501 24.6385 48.5943 24.4974 48.3431 23.8923C47.9625 22.9846 47.4097 22.5692 46.6846 22.6462C46.1605 22.7026 46.1318 22.9026 46.5984 23.2462ZM24.2415 22.8692C23.7461 22.6923 23.2077 23.0846 22.8577 23.5846C22.8229 23.6351 22.7992 23.6994 22.7898 23.7692C22.7803 23.8389 22.7855 23.9109 22.8047 23.9756C22.8239 24.0404 22.8561 24.095 22.8973 24.1323C22.9384 24.1695 22.9865 24.1878 23.0354 24.1846C23.5523 24.1692 23.9866 23.8846 24.3384 23.3308C24.4892 23.1 24.4569 22.9462 24.2415 22.8692ZM25.5177 26.8231C26.0813 27.0692 26.661 27.0487 27.2569 26.7615C27.4938 26.6487 27.492 26.5462 27.2515 26.4538C26.9715 26.341 26.6861 26.3436 26.3954 26.4615C26.2266 26.5282 26.0561 26.5333 25.8838 26.4769L19.3684 24.2692C19.3004 24.2414 19.2275 24.2506 19.164 24.2952C19.1005 24.3397 19.0508 24.4165 19.0246 24.5104C18.9985 24.6043 18.9977 24.7088 19.0224 24.8036C19.0471 24.8983 19.0956 24.9765 19.1584 25.0231C19.6054 25.3923 21.5977 25.9615 21.7754 26.3692C21.8687 26.5795 21.9997 26.7128 22.1684 26.7692C23.0946 27.0615 24.0118 27.0692 24.92 26.7923C25.121 26.7308 25.3202 26.741 25.5177 26.8231ZM16.5846 27.6846C17.0154 27.6615 19.0292 27.8615 19.2769 26.8C19.3307 26.5795 19.2769 26.4872 19.1154 26.5231L16.0892 27.2615C15.7841 27.3333 15.6782 27.159 15.7715 26.7385L15.9815 25.7692C16.0246 25.5692 15.9923 25.4026 15.8846 25.2692C15.5472 24.8385 15.1702 24.8436 14.7538 25.2846C14.6793 25.3636 14.6167 25.4633 14.5698 25.5777C14.5228 25.6922 14.4924 25.8191 14.4804 25.9511C14.4683 26.083 14.4749 26.2172 14.4996 26.3459C14.5244 26.4745 14.5669 26.5949 14.6246 26.7C16.4769 30.0231 19.5138 31.6846 22.2492 29.4539C22.4592 29.2769 24.5592 27.9154 24.57 27.8539C24.6131 27.6487 24.5592 27.5615 24.4084 27.5923C23.1341 27.859 21.9692 28.5231 20.9138 29.5846C20.7702 29.7282 20.6159 29.7564 20.4507 29.6692C20.0702 29.4641 19.74 29.1641 19.46 28.7692C19.3523 28.6256 19.2266 28.5539 19.0831 28.5539C18.2323 28.5744 17.3887 28.4641 16.5523 28.2231C15.5041 27.9205 15.5148 27.741 16.5846 27.6846ZM24.9038 39C25.9054 39.2 26.6161 40.8231 27.4346 40.4846C27.4739 40.4683 27.509 40.4359 27.5356 40.3914C27.5622 40.3469 27.5792 40.2923 27.5843 40.2343C27.5895 40.1762 27.5826 40.1173 27.5646 40.0647C27.5466 40.0122 27.5183 39.9683 27.4831 39.9385L25.1515 37.9846C25.0546 37.9026 25.0564 37.8282 25.1569 37.7615L25.2807 37.6769C25.4279 37.5795 25.5625 37.6026 25.6846 37.7462L26.7831 39.0077C26.8286 39.0575 26.8841 39.0853 26.9414 39.0869C26.9988 39.0885 27.055 39.0639 27.1019 39.0167C27.1488 38.9694 27.1839 38.9021 27.2021 38.8243C27.2203 38.7466 27.2206 38.6626 27.2031 38.5846C27.0307 37.8974 26.6969 37.4282 26.2015 37.1769C26.0651 37.1103 25.9359 37.0128 25.8138 36.8846C25.681 36.7462 25.5374 36.6077 25.3831 36.4692C25.2143 36.3154 25.2305 36.2462 25.4315 36.2615C25.6074 36.2821 25.7833 36.4026 25.9592 36.6231C26.1854 36.9 26.2859 36.8282 26.2607 36.4077C26.2284 35.7718 26.0418 35.218 25.7007 34.7462C25.6146 34.6282 25.6074 34.4974 25.6792 34.3539L25.8354 34.0615C25.9287 33.8769 26.0525 33.8026 26.2069 33.8385L28.4684 34.3077C28.6228 34.3385 28.7143 34.4641 28.7431 34.6846C28.8077 35.1821 29.0249 35.4795 29.3946 35.5769C29.7859 35.6795 29.8792 35.4846 29.6746 34.9923L28.8507 33C28.7143 32.6718 28.5995 32.6846 28.5061 33.0385C28.2369 34.0769 25.0815 32.9615 24.2146 33.0615C23.9956 33.0872 23.9184 32.9487 23.9831 32.6462C24.1195 31.9897 24.4713 31.5333 25.0384 31.2769C25.7169 32.0462 26.4366 32.1974 27.1977 31.7308C27.6033 31.4846 27.5854 31.3846 27.1438 31.4308C26.5013 31.5026 25.8892 31.3872 25.3077 31.0846C25.5984 30.2692 25.5231 29.618 25.0815 29.1308C24.9272 28.9667 24.7674 28.9513 24.6023 29.0846L21.9315 31.2846C21.7448 31.4385 21.639 31.6667 21.6138 31.9692C21.5133 33.2 21.5761 34.3949 21.8023 35.5539C22.4377 38.8231 22.9007 37.9615 24.4946 39.7077C24.9092 40.1692 27.1169 42.7769 27.4292 41.8769C27.5261 41.6051 27.4831 41.3898 27.3 41.2308C26.3092 40.3769 25.6954 40.3462 24.9038 39ZM47.3846 32.6846L47.1154 33.0692C46.5195 32.7462 45.981 32.8103 45.5 33.2615C44.7174 33.0667 43.9618 33.2487 43.2331 33.8077C42.28 32.9077 43.8038 31.1308 44.8754 32.2539C44.9902 32.3769 45.0979 32.3667 45.1984 32.2231L45.3277 32.0308C45.4892 31.8 45.4605 31.6436 45.2415 31.5615C43.6477 30.9359 42.6066 31.6974 42.1184 33.8462C42.1017 33.9227 42.0994 34.0042 42.1119 34.0824C42.1244 34.1606 42.1511 34.2327 42.1894 34.2913C42.2277 34.3499 42.2762 34.393 42.3299 34.4161C42.3837 34.4393 42.4408 34.4417 42.4954 34.4231L43.2115 34.1615L45.2307 33.4539L45.5 34.6077L45.2307 34.9308L43.89 38.5231C43.8002 38.7692 43.8505 38.9282 44.0407 39C44.1161 39.0308 44.1987 39.0308 44.2884 39C44.1987 39.3795 44.012 39.6539 43.7284 39.8231C43.4125 40.0077 43.409 40.2051 43.7177 40.4154L43.9115 40.5462C44.0695 40.6539 44.2077 40.618 44.3261 40.4385C44.8036 39.7154 45.3743 39.2359 46.0384 39C45.4138 40.0051 44.6797 40.7385 43.8361 41.2C43.7866 41.2278 43.7436 41.2752 43.7122 41.3366C43.6809 41.398 43.6624 41.471 43.659 41.5469C43.6556 41.6228 43.6674 41.6985 43.6931 41.7651C43.7187 41.8317 43.7571 41.8865 43.8038 41.9231C44.0084 42.0872 44.2148 42.1385 44.4231 42.0769L43.7231 43.4385C43.6911 43.5022 43.676 43.58 43.6805 43.6582C43.685 43.7363 43.7087 43.8096 43.7475 43.8651C43.7863 43.9205 43.8376 43.9544 43.8923 43.9608C43.947 43.9672 44.0015 43.9457 44.0461 43.9L48.1707 39.7077C48.4902 39.3846 48.4561 39.241 48.0684 39.2769C47.1961 39.3539 45.4677 41.5231 44.4231 42.0769C45.6543 40.4872 47.0633 39.1897 48.65 38.1846C48.783 38.0975 48.8976 37.9629 48.9826 37.7943C49.0676 37.6256 49.12 37.4287 49.1346 37.2231C49.1669 36.8128 49.0772 36.5744 48.8654 36.5077C48.6751 36.4513 48.6661 36.3641 48.8384 36.2462C49.1795 36.0256 49.42 35.6615 49.56 35.1539C49.8077 33.9539 49.7592 32.8103 49.4146 31.7231C49.3392 31.4872 49.219 31.3103 49.0538 31.1923C48.5154 30.8154 46.1515 28.4692 45.8823 29.3846L45.6346 29.6077C45.4084 29.5154 45.2397 29.3282 45.1284 29.0462C44.9884 28.6923 44.9005 28.718 44.8646 29.1231L44.8161 29.6154C44.7982 29.8359 44.8502 30.0103 44.9723 30.1385L47.3846 32.6846ZM42.0629 29.2196C42.0358 29.1729 41.9911 29.1478 41.9313 29.1458C41.8715 29.1438 41.7978 29.1649 41.7143 29.208C41.6308 29.251 41.5393 29.3151 41.4449 29.3965C41.3504 29.478 41.255 29.5753 41.164 29.6829C40.9803 29.9 40.8257 30.1458 40.7344 30.366C40.6431 30.5863 40.6225 30.763 40.6771 30.8573C40.7041 30.904 40.7488 30.9291 40.8086 30.9311C40.8684 30.9331 40.9422 30.912 41.0256 30.869C41.1091 30.826 41.2007 30.7619 41.2951 30.6804C41.3895 30.5989 41.4849 30.5016 41.5759 30.3941C41.7597 30.1769 41.9142 29.9312 42.0056 29.7109C42.0969 29.4907 42.1175 29.3139 42.0629 29.2196ZM50.0661 29.3692C50.1056 29.8256 50.2869 30.0692 50.61 30.1C50.8325 30.1205 50.8972 29.9872 50.8038 29.7C50.7572 29.5615 50.6979 29.4513 50.6261 29.3692C50.2097 28.9026 50.0231 28.9026 50.0661 29.3692ZM29.3419 31.823C29.3609 31.7853 29.3572 31.7247 29.3309 31.6447C29.3045 31.5646 29.2562 31.4667 29.1885 31.3565C29.1209 31.2463 29.0353 31.1259 28.9366 31.0023C28.8379 30.8787 28.728 30.7543 28.6133 30.6361C28.4986 30.5179 28.3813 30.4083 28.268 30.3135C28.1548 30.2188 28.0478 30.1407 27.9533 30.0838C27.8587 30.0269 27.7784 29.9922 27.7169 29.9818C27.6555 29.9714 27.614 29.9855 27.595 30.0232C27.576 30.0608 27.5797 30.1214 27.606 30.2015C27.6323 30.2815 27.6807 30.3794 27.7484 30.4897C27.816 30.5999 27.9016 30.7202 28.0003 30.8438C28.099 30.9674 28.2088 31.0919 28.3235 31.2101C28.4382 31.3283 28.5556 31.4379 28.6688 31.5326C28.7821 31.6274 28.889 31.7055 28.9836 31.7624C29.0782 31.8193 29.1585 31.8539 29.22 31.8643C29.2814 31.8747 29.3229 31.8607 29.3419 31.823ZM28.4361 46.5846C24.1661 44.5846 19.0831 39.7615 19.7723 32.3154C19.7938 32.0744 19.7615 31.8487 19.6754 31.6385C19.4923 31.2026 19.3397 31.0718 19.2177 31.2462C19.0561 31.4718 18.9664 31.6641 18.9484 31.8231C17.99 39.8 23.3154 45.4923 28.2423 47.2539C28.2961 47.2744 28.3428 47.2564 28.3823 47.2L28.5061 47.0231C28.6497 46.818 28.6264 46.6718 28.4361 46.5846ZM27.5882 43.7768C27.6087 43.7332 27.6231 43.6843 27.6304 43.6328C27.6377 43.5814 27.6379 43.5283 27.6309 43.4768C27.6239 43.4252 27.6098 43.3761 27.5895 43.3323C27.5692 43.2885 27.5431 43.2508 27.5126 43.2215L23.7092 39.5566C23.6476 39.4973 23.5721 39.4754 23.4992 39.4956C23.4263 39.5158 23.3621 39.5766 23.3205 39.6645L23.2964 39.7155C23.2758 39.7591 23.2615 39.808 23.2542 39.8595C23.2468 39.911 23.2467 39.964 23.2537 40.0156C23.2607 40.0671 23.2748 40.1162 23.2951 40.16C23.3154 40.2038 23.3415 40.2415 23.372 40.2709L27.1754 43.9357C27.2369 43.995 27.3125 44.0169 27.3854 43.9967C27.4582 43.9765 27.5225 43.9157 27.564 43.8278L27.5882 43.7768ZM43.0392 45.0692L43.05 40.5769C43.05 40.5422 43.0403 40.509 43.0232 40.4845C43.006 40.4599 42.9827 40.4462 42.9584 40.4462H42.9154C42.8139 40.445 42.7132 40.4849 42.6193 40.5636C42.5253 40.6423 42.4398 40.7583 42.3678 40.9048C42.2957 41.0514 42.2385 41.2256 42.1994 41.4175C42.1603 41.6094 42.1401 41.8152 42.14 42.0231V43.6231C42.1397 44.0398 42.22 44.4395 42.3633 44.735C42.5065 45.0304 42.7011 45.1976 42.9046 45.2H42.9477C42.9719 45.2 42.9952 45.1862 43.0124 45.1617C43.0296 45.1372 43.0392 45.1039 43.0392 45.0692ZM34.1761 51.2308L38.5915 51.2846C38.7387 51.2846 38.8338 51.1821 38.8769 50.9769L39.0815 50C39.139 49.7282 39.069 49.5872 38.8715 49.5769C37.2274 49.459 35.639 49.8436 34.1061 50.7308C34.0683 50.7551 34.0374 50.7969 34.0184 50.8496C33.9994 50.9023 33.9935 50.9626 34.0016 51.0206C34.0098 51.0787 34.0315 51.1311 34.0632 51.1693C34.0949 51.2075 34.1347 51.2291 34.1761 51.2308ZM35.07 52.0385C35.0185 52.0722 34.9751 52.1268 34.945 52.1953C34.915 52.2638 34.8996 52.3434 34.9007 52.4243C34.9019 52.5051 34.9195 52.5838 34.9515 52.6505C34.9835 52.7173 35.0284 52.7692 35.0807 52.8C35.4505 53.0154 35.8113 53.0282 36.1631 52.8385C36.4395 52.6949 36.4646 52.4897 36.2384 52.2231C35.8938 51.818 35.5043 51.7564 35.07 52.0385Z" fill="black"/>
<path d="M9.22926 32.1385C8.06618 48.7769 23.8431 57.0385 32.8354 57.3462C32.9934 57.3513 33.0885 57.4641 33.1208 57.6846C33.1531 57.9205 33.0562 58.1077 32.83 58.2462C32.7152 58.3128 32.5949 58.341 32.4693 58.3308C25.3831 57.8539 17.5485 54.1692 12.6216 47C3.43541 33.6154 10.43 18.5385 20.4669 12.8385C30.6187 7.0641 40.8639 7.16154 51.2023 13.1308C57.5185 16.7769 64.1469 26.1846 62.6931 36.6769C60.7385 50.8231 47.6431 57.5615 38.9685 58.3846C38.9018 58.3916 38.8353 58.3669 38.7789 58.3141C38.7226 58.2614 38.6795 58.1835 38.6562 58.0923C38.5664 57.7436 38.6203 57.559 38.8177 57.5385C47.0723 56.7231 58.9185 50.8077 61.5193 37.9231C64.8577 21.3692 49.6516 11.1385 40.9608 10.0769C37.2993 9.62308 31.2146 9.59231 27.3162 10.7769C19.9877 12.9923 10.0962 19.8231 9.22926 32.1385Z" fill="white"/>
<path d="M49.1669 17.7538C50.2331 17.8205 51.0821 18.3641 51.7139 19.3846C50.6405 19.4872 49.7915 18.9436 49.1669 17.7538Z" fill="#6F6D6E" fill-opacity="0.996"/>
<path d="M33.4492 18.3462C33.9159 18.0641 34.3269 18.0795 34.6823 18.3923C34.9695 18.6436 34.9443 18.7846 34.6069 18.8154C34.23 18.8513 33.8548 18.8257 33.4815 18.7385C33.1477 18.6667 33.1369 18.5359 33.4492 18.3462Z" fill="#6F6D6E" fill-opacity="0.996"/>
<path d="M47.1154 19.9923L47.5515 19.9462C47.7741 19.8897 48.011 19.9128 48.2623 20.0154C48.4525 20.0974 48.51 20.2667 48.4346 20.5231C48.0092 21.9923 43.9707 21.7385 42.8992 21.8308C42.6587 21.8564 42.5815 22.0282 42.6677 22.3462L42.8507 23.0308C42.9656 23.4718 42.8813 23.5718 42.5977 23.3308C41.8366 22.6846 41.1546 22.959 40.5515 24.1538C40.3864 24.4821 40.4456 24.6256 40.7292 24.5846C41.3933 24.4974 41.9031 24.8231 42.2584 25.5615C42.3733 25.8026 42.3733 26.041 42.2584 26.2769C41.5513 27.7282 40.5802 28.5667 39.3454 28.7923C39.1623 28.8231 39.0277 28.959 38.9415 29.2C37.4625 33.4154 37.5146 37.5974 39.0977 41.7462C39.1946 42.0077 39.3418 42.0923 39.5392 42C40.5838 41.4923 40.6323 39.6923 41.4507 38.8538C41.5049 38.8018 41.5696 38.7768 41.6348 38.7827C41.6999 38.7886 41.7619 38.8251 41.811 38.8866C41.8601 38.948 41.8937 39.0308 41.9064 39.1223C41.9192 39.2138 41.9104 39.3087 41.8815 39.3923C40.801 42.3308 41.1564 44.8282 42.9477 46.8846C43.12 47.0846 43.1272 47.2949 42.9692 47.5154L42.7969 47.7615C42.6749 47.9359 42.5277 48.0179 42.3554 48.0077L40.7077 47.8846C40.5784 47.8744 40.5156 47.7795 40.5192 47.6C40.5192 47.5282 40.5192 47.4564 40.5192 47.3846C40.5228 47.2923 40.5443 47.2128 40.5838 47.1462L41.2084 46.1077C41.3161 45.9282 41.3395 45.7282 41.2784 45.5077C40.4923 42.6077 37.7569 44.5154 36.1092 44.7C34.5046 44.8846 33.0346 43.7538 31.3115 43.6846C31.1284 43.6744 30.9866 43.7795 30.8861 44L29.9707 45.9923C29.8631 46.2231 29.8846 46.4282 30.0354 46.6077L31.4784 48.3154C31.5431 48.3923 31.6023 48.3872 31.6561 48.3C31.692 48.2436 31.7261 48.1923 31.7584 48.1462C31.8446 48.0282 31.8428 47.9128 31.7531 47.8L30.8484 46.6615C30.7334 46.5156 30.6592 46.3148 30.6394 46.0959C30.6197 45.877 30.6556 45.6545 30.7407 45.4692C31.2846 44.2923 31.7854 44.1769 32.7654 44.6231C34.7828 45.5513 36.8289 45.5897 38.9038 44.7385L39.3292 44.9615C38.8948 45.9462 38.29 46.3821 37.5146 46.2692C36.7787 46.1564 36.6656 46.2872 37.1754 46.6615C37.3584 46.7897 37.441 47.0051 37.4231 47.3077C37.4051 47.5949 37.3028 47.6821 37.1161 47.5692C36.4915 47.2 35.8418 47.1179 35.1669 47.3231C34.8618 47.4154 34.6302 47.2718 34.4723 46.8923L34.3915 46.6923C34.3377 46.5692 34.2641 46.4795 34.1707 46.4231L31.8177 45.0231C31.7682 44.9933 31.7145 44.981 31.661 44.9872C31.6076 44.9934 31.5559 45.0179 31.5105 45.0587C31.465 45.0994 31.4272 45.1552 31.4 45.2213C31.3729 45.2874 31.3573 45.3619 31.3546 45.4385C31.3115 46.9385 33.0507 46.5923 33.7831 47.0692C33.9769 47.1974 33.9787 47.3359 33.7884 47.4846L31.4838 49.2615C31.3223 49.3846 31.15 49.4333 30.9669 49.4077L28.91 49.1231C28.8205 49.111 28.7359 49.0609 28.6668 48.9792C28.5976 48.8975 28.5472 48.7878 28.5218 48.6642C28.4964 48.5405 28.4972 48.4084 28.5241 48.2847C28.5511 48.1609 28.6029 48.0511 28.6731 47.9692C29.4484 47.0769 29.4646 46.2 28.7215 45.3385C28.5995 45.1949 28.5061 45.0179 28.4415 44.8077C27.7236 42.4231 28.1202 40.6872 29.6315 39.6C29.8361 39.4513 30.0048 39.5103 30.1377 39.7769L30.9884 41.4692C31.0889 41.6744 31.2236 41.8154 31.3923 41.8923C33.2446 42.7538 33.1423 34.2 32.9 32.6538C32.8461 32.3 32.7223 32.241 32.5284 32.4769L32.1677 32.9231C31.9846 33.1487 31.8697 33.0923 31.8231 32.7538C31.7764 32.4154 31.8248 32.0897 31.9684 31.7769C32.0582 31.5769 32.0761 31.3667 32.0223 31.1462C31.552 29.0897 30.5756 27.7795 29.0931 27.2154C28.8956 27.1436 28.8023 26.9615 28.8131 26.6692C28.8489 25.6333 28.5402 24.941 27.8869 24.5923C27.6931 24.4897 27.6033 24.2897 27.6177 23.9923L27.7307 21.4846C27.7415 21.2436 27.6643 21.1205 27.4992 21.1154L24.3331 20.9462C24.1392 20.9359 24.001 20.8077 23.9184 20.5615C23.2831 18.7 27.6177 19.7615 28.4684 19.9846C28.6587 20.0308 28.8382 19.9923 29.0069 19.8692C30.7443 18.5769 32.3974 18.6897 33.9661 20.2077C34.1348 20.3667 34.3161 20.4051 34.51 20.3231C34.7936 20.2 34.9784 19.9462 35.0646 19.5615C35.1184 19.3103 35.2351 19.1538 35.4146 19.0923C36.0823 18.8564 36.7302 18.9667 37.3584 19.4231C37.7354 19.6949 37.7282 19.9462 37.3369 20.1769C36.96 20.4026 36.5561 20.4436 36.1254 20.3C35.752 20.1718 35.6641 20.341 35.8615 20.8077C36.0087 21.1564 36.2618 21.3359 36.6207 21.3462C36.8182 21.3513 36.9295 21.4923 36.9546 21.7692C37.0838 23.1692 37.6366 23.9205 38.6131 24.0231C38.8572 24.0538 38.9182 23.918 38.7961 23.6154L38.4946 22.8615C38.3007 22.3795 38.3654 22.2897 38.6884 22.5923C39.3454 23.1974 40.04 23.2333 40.7723 22.7C41.02 22.5205 41.0631 22.2718 40.9015 21.9538L40.3954 20.9385C40.1297 20.4154 40.2051 20.2846 40.6215 20.5462C41.9102 21.3718 43.1972 21.3 44.4823 20.3308C44.6438 20.2077 44.8179 20.141 45.0046 20.1308L47.1154 19.9923ZM32.1515 24.3846C32.392 25.4308 32.8479 25.741 33.5192 25.3154C33.8746 26.1051 34.2946 26.5051 34.7792 26.5154C34.9874 26.5205 35.1274 26.3846 35.1992 26.1077L35.5492 24.8154C35.6354 24.5026 35.56 24.3615 35.3231 24.3923L33.5192 24.6077C33.1746 24.6538 32.9951 24.4615 32.9807 24.0308C33.7669 23.7436 34.1636 23.0872 34.1707 22.0615C34.1779 21.4308 34.0361 21.3538 33.7454 21.8308C33.1495 22.8154 32.4136 23.4077 31.5377 23.6077C31.3079 23.6641 31.2756 23.8077 31.4407 24.0385C31.6346 24.3103 31.8715 24.4256 32.1515 24.3846ZM30.1754 21.9769C29.3677 21.6692 28.8292 22.0026 28.56 22.9769C28.4702 23.2949 28.5402 23.5051 28.77 23.6077C29.4054 23.8897 29.9402 23.7564 30.3746 23.2077C30.4431 23.1225 30.4942 23.0123 30.5222 22.8888C30.5503 22.7653 30.5543 22.6333 30.5338 22.5068C30.5133 22.3803 30.4691 22.2642 30.406 22.1709C30.3429 22.0775 30.2631 22.0105 30.1754 21.9769ZM35.9725 32.7664C35.9748 32.6846 35.9659 32.603 35.9461 32.5262C35.9263 32.4494 35.8961 32.379 35.8573 32.3188C35.8185 32.2587 35.7717 32.2101 35.7197 32.1757C35.6677 32.1414 35.6115 32.1221 35.5543 32.1188L35.4789 32.1145C35.3634 32.1078 35.2507 32.1671 35.1657 32.2791C35.0807 32.3912 35.0303 32.5469 35.0257 32.712L34.9751 34.5105C34.9728 34.5923 34.9818 34.6739 35.0016 34.7507C35.0213 34.8275 35.0515 34.898 35.0904 34.9581C35.1292 35.0182 35.1759 35.0669 35.2279 35.1012C35.2799 35.1355 35.3361 35.1549 35.3934 35.1582L35.4687 35.1625C35.5843 35.1691 35.697 35.1098 35.782 34.9978C35.867 34.8857 35.9173 34.73 35.922 34.5649L35.9725 32.7664Z" fill="white"/>
<path d="M32.9808 24.0308C32.5895 23.8154 32.3131 23.9333 32.1516 24.3846C31.8716 24.4257 31.6346 24.3103 31.4408 24.0385C31.2757 23.8077 31.308 23.6641 31.5377 23.6077C32.4136 23.4077 33.1495 22.8154 33.7454 21.8308C34.0362 21.3539 34.178 21.4308 34.1708 22.0615C34.1636 23.0872 33.767 23.7436 32.9808 24.0308Z" fill="black"/>
<path d="M30.1754 21.9769C30.2632 22.0105 30.3429 22.0775 30.4061 22.1709C30.4692 22.2642 30.5134 22.3803 30.5338 22.5068C30.5543 22.6333 30.5503 22.7653 30.5223 22.8888C30.4942 23.0122 30.4432 23.1225 30.3746 23.2077C29.9403 23.7564 29.4054 23.8897 28.77 23.6077C28.5403 23.5051 28.4703 23.2949 28.56 22.9769C28.8293 22.0026 29.3677 21.6692 30.1754 21.9769Z" fill="black"/>
<path d="M46.6846 22.6462C47.4097 22.5692 47.9626 22.9846 48.3431 23.8923C48.5943 24.4974 48.501 24.6385 48.0631 24.3154L46.5984 23.2462C46.1318 22.9026 46.1605 22.7026 46.6846 22.6462Z" fill="white"/>
<path d="M22.8577 23.5846C23.2077 23.0846 23.7461 22.6923 24.2415 22.8692C24.4569 22.9462 24.4892 23.1 24.3384 23.3308C23.9866 23.8846 23.5523 24.1692 23.0354 24.1846C22.9865 24.1878 22.9384 24.1695 22.8973 24.1323C22.8561 24.095 22.8239 24.0404 22.8047 23.9757C22.7855 23.9109 22.7803 23.8389 22.7898 23.7692C22.7992 23.6994 22.8229 23.6351 22.8577 23.5846Z" fill="white"/>
<path d="M54.9446 23.8077L55.6823 24.5923C55.8367 24.7564 55.8977 24.9718 55.8654 25.2384C55.8223 25.6487 55.6051 25.8769 55.2139 25.9231L54.9392 25.3C54.0454 24.182 53.008 23.5769 51.8269 23.4846C51.6546 23.4692 51.5685 23.5846 51.5685 23.8308C51.5756 24.1743 51.4823 24.4333 51.2885 24.6077L50.5023 24.1923L49.9639 23.8077L49.9208 23.4231C51.6187 22.5769 53.2933 22.7051 54.9446 23.8077Z" fill="#D0CFCF"/>
<path d="M17.7477 23.4231C17.3995 24.4179 16.9059 24.6102 16.2669 24L17.7477 23.4231Z" fill="#6F6D6E" fill-opacity="0.996"/>
<path d="M49.9638 23.8077L50.5023 24.1923C49.9997 25.059 50.0374 25.8179 50.6154 26.4692L49.4415 26.0077C49.1795 25.9 49.0951 26.0308 49.1884 26.4L49.35 27.0308C49.4469 27.4205 49.359 27.5487 49.0861 27.4154L48.0361 26.9C47.7777 26.7718 47.6502 26.9025 47.6538 27.2923C47.6538 27.359 47.6538 27.4282 47.6538 27.5C47.6502 27.7154 47.7077 27.8897 47.8261 28.0231L49.1238 29.4692C49.3141 29.6846 49.2961 29.8487 49.07 29.9615C48.4184 30.2923 46.2484 27.2384 45.8177 26.5077C45.692 26.2974 45.5359 26.2231 45.3492 26.2846L44.5792 26.5231C44.3423 26.6 44.2489 26.4692 44.2992 26.1308C44.4356 25.2333 44.8359 24.8256 45.5 24.9077C47.2231 25.1282 48.711 24.7615 49.9638 23.8077Z" fill="white"/>
<path d="M32.9808 24.0308C32.9951 24.4615 33.1746 24.6538 33.5192 24.6077V25.3154C32.848 25.741 32.3921 25.4308 32.1516 24.3846C32.3131 23.9333 32.5895 23.8154 32.9808 24.0308Z" fill="#6F6D6E" fill-opacity="0.996"/>
<path d="M24.92 26.7923C24.0118 27.0692 23.0946 27.0615 22.1685 26.7692C21.9998 26.7128 21.8687 26.5795 21.7754 26.3692C21.5977 25.9615 19.6054 25.3923 19.1585 25.0231C19.0957 24.9765 19.0472 24.8983 19.0224 24.8036C18.9977 24.7088 18.9985 24.6043 19.0247 24.5104C19.0509 24.4165 19.1005 24.3397 19.1641 24.2952C19.2276 24.2506 19.3004 24.2414 19.3685 24.2692L25.8839 26.4769C26.0562 26.5333 26.2267 26.5282 26.3954 26.4615C26.6862 26.3436 26.9716 26.341 27.2516 26.4539C27.4921 26.5462 27.4939 26.6487 27.2569 26.7615C26.661 27.0487 26.0813 27.0692 25.5177 26.8231C25.3203 26.741 25.121 26.7308 24.92 26.7923Z" fill="white"/>
<path d="M50.5023 24.1923L51.2885 24.6077L50.6154 26.4692C50.0374 25.818 49.9997 25.059 50.5023 24.1923Z" fill="#6F6D6E" fill-opacity="0.996"/>
<path d="M33.5192 25.3154V24.6077L35.3231 24.3923C35.56 24.3615 35.6354 24.5026 35.5492 24.8154L35.1992 26.1077C35.1274 26.3846 34.9874 26.5205 34.7792 26.5154C34.2946 26.5051 33.8746 26.1051 33.5192 25.3154Z" fill="black"/>
<path d="M16.5523 28.2231C17.3887 28.4641 18.2323 28.5744 19.083 28.5538C19.2266 28.5538 19.3523 28.6256 19.46 28.7692C19.74 29.1641 20.0702 29.4641 20.4507 29.6692C20.6159 29.7564 20.7702 29.7282 20.9138 29.5846C21.9692 28.5231 23.1341 27.859 24.4084 27.5923C24.5592 27.5615 24.613 27.6487 24.57 27.8538C24.5592 27.9154 22.4592 29.2769 22.2492 29.4538C19.5138 31.6846 16.4769 30.0231 14.6246 26.7C14.5669 26.5949 14.5244 26.4745 14.4996 26.3458C14.4749 26.2172 14.4683 26.083 14.4804 25.951C14.4924 25.8191 14.5228 25.6922 14.5698 25.5777C14.6167 25.4633 14.6793 25.3636 14.7538 25.2846C15.1702 24.8436 15.5471 24.8385 15.8846 25.2692C15.9923 25.4026 16.0246 25.5692 15.9815 25.7692L15.7715 26.7385C15.6782 27.159 15.7841 27.3333 16.0892 27.2615L19.1154 26.5231C19.2769 26.4872 19.3307 26.5795 19.2769 26.8C19.0292 27.8615 17.0154 27.6615 16.5846 27.6846C15.5148 27.741 15.5041 27.9205 16.5523 28.2231Z" fill="white"/>
<path d="M54.9393 25.3L55.2139 25.9231C54.8262 26.5846 54.2949 26.8308 53.62 26.6615C53.3795 26.6 53.2503 26.7436 53.2323 27.0923C53.1893 27.9436 52.8662 28.3923 52.2631 28.4385C52.1762 28.4439 52.0915 28.4787 52.0159 28.54C51.9402 28.6013 51.8756 28.6875 51.8274 28.7916C51.7792 28.8956 51.7487 29.0147 51.7383 29.139C51.728 29.2634 51.738 29.3897 51.7677 29.5077C54.0939 38.4538 48.7362 44.8231 43.3623 47.1308C43.33 47.1441 43.2956 47.1431 43.2636 47.128C43.2317 47.1128 43.2037 47.0843 43.1833 47.046C43.1629 47.0077 43.1511 46.9616 43.1494 46.9135C43.1478 46.8655 43.1563 46.8179 43.1739 46.7769C43.2062 46.6949 43.2403 46.6102 43.2762 46.5231C43.3516 46.3384 43.4593 46.2077 43.5993 46.1308C48.0631 43.8461 51.9185 39.1846 51.3962 31.7154C51.3782 31.4436 51.4034 31.182 51.4716 30.9308C51.651 30.2333 51.5452 29.5743 51.1539 28.9538C51.0139 28.7333 50.9708 28.4795 51.0246 28.1923C51.5093 25.6692 53.55 26.0077 54.9393 25.3Z" fill="white"/>
<path d="M25.3077 31.0846L25.0384 31.2769C24.4713 31.5333 24.1195 31.9897 23.9831 32.6462C23.9185 32.9487 23.9956 33.0872 24.2146 33.0615C25.0815 32.9615 28.2369 34.0769 28.5061 33.0385C28.5995 32.6846 28.7143 32.6718 28.8508 33L29.6746 34.9923C29.8792 35.4846 29.7859 35.6795 29.3946 35.5769C29.0249 35.4795 28.8077 35.1821 28.7431 34.6846C28.7143 34.4641 28.6228 34.3385 28.4684 34.3077L26.2069 33.8385C26.0526 33.8026 25.9287 33.8769 25.8354 34.0615L25.6792 34.3539C25.6074 34.4974 25.6146 34.6282 25.7008 34.7462C26.0418 35.218 26.2284 35.7718 26.2608 36.4077C26.2859 36.8282 26.1854 36.9 25.9592 36.6231C25.7833 36.4026 25.6074 36.2821 25.4315 36.2615C25.2305 36.2462 25.2143 36.3154 25.3831 36.4692C25.5374 36.6077 25.681 36.7462 25.8138 36.8846C25.9359 37.0128 26.0651 37.1103 26.2015 37.1769C26.6969 37.4282 27.0308 37.8974 27.2031 38.5846C27.2206 38.6626 27.2203 38.7466 27.2021 38.8243C27.1839 38.9021 27.1488 38.9694 27.1019 39.0167C27.055 39.0639 26.9988 39.0885 26.9415 39.0869C26.8841 39.0853 26.8286 39.0575 26.7831 39.0077L25.6846 37.7462C25.5626 37.6026 25.4279 37.5795 25.2808 37.6769L25.1569 37.7615C25.0564 37.8282 25.0546 37.9026 25.1515 37.9846L27.4831 39.9385C27.5183 39.9683 27.5467 40.0122 27.5646 40.0647C27.5826 40.1173 27.5895 40.1762 27.5843 40.2343C27.5792 40.2923 27.5623 40.3469 27.5357 40.3914C27.5091 40.4359 27.4739 40.4683 27.4346 40.4846C26.6161 40.8231 25.9054 39.2 24.9038 39C24.9469 38.7282 24.9002 38.4923 24.7638 38.2923C24.7372 38.2525 24.7047 38.2215 24.6687 38.2015C24.6327 38.1815 24.5941 38.1731 24.5556 38.1768C24.5171 38.1804 24.4796 38.1961 24.4458 38.2227C24.412 38.2493 24.3827 38.2862 24.36 38.3308L24.2415 38.5615C24.0979 38.8385 24.1482 38.9795 24.3923 38.9846L24.9038 39C25.6954 40.3462 26.3092 40.3769 27.3 41.2308C27.4831 41.3897 27.5261 41.6051 27.4292 41.8769C27.1169 42.7769 24.9092 40.1692 24.4946 39.7077C22.9008 37.9615 22.4377 38.8231 21.8023 35.5539C21.5761 34.3949 21.5133 33.2 21.6138 31.9692C21.639 31.6667 21.7449 31.4385 21.9315 31.2846L24.6023 29.0846C24.7674 28.9513 24.9272 28.9667 25.0815 29.1308C25.5231 29.618 25.5984 30.2692 25.3077 31.0846ZM23.3423 31.6539C23.6277 31.4846 24.9038 30.6923 24.7638 30.1077C24.71 29.8821 24.6131 29.8333 24.4731 29.9615C24.0585 30.3615 22.4969 31.4 22.5077 32.0923C22.5113 32.3026 22.5867 32.4231 22.7338 32.4539L22.9815 32.5C23.0892 32.5205 23.1449 32.4513 23.1485 32.2923C23.152 32.2154 23.1538 32.141 23.1538 32.0692C23.1538 31.8692 23.2167 31.7308 23.3423 31.6539ZM22.1738 33.4C22.4359 33.9744 22.7769 34.3539 23.1969 34.5385C23.441 34.6513 23.4769 34.5718 23.3046 34.3C23.0138 33.8333 22.6638 33.4872 22.2546 33.2615C22.1218 33.1846 22.0949 33.2308 22.1738 33.4ZM24.3977 33.8846C24.509 34.3769 24.7297 34.6949 25.06 34.8385C25.2574 34.9256 25.2861 34.8615 25.1461 34.6462L24.5592 33.7539C24.369 33.4615 24.3151 33.5051 24.3977 33.8846ZM23.8754 36.0923C23.6815 36.2154 22.4485 34.7769 22.05 34.6077C21.6695 34.4436 21.6443 34.5205 21.9746 34.8385L23.8646 36.6385C23.9508 36.7205 24.01 36.6923 24.0423 36.5539C24.0567 36.4718 24.0746 36.3897 24.0961 36.3077C24.1751 36.0154 24.1015 35.9436 23.8754 36.0923ZM23.4446 37.5C23.3046 37.1103 23.1197 36.8462 22.89 36.7077C22.1002 36.2462 22.0554 36.4282 22.7554 37.2538C23.1323 37.6949 23.5487 37.9923 24.0046 38.1462C24.0656 38.1667 24.0961 38.1333 24.0961 38.0462C24.0961 37.9795 24.0961 37.9103 24.0961 37.8385C24.0997 37.7615 24.01 37.7051 23.8269 37.6692C23.7659 37.6539 23.7067 37.6513 23.6492 37.6615C23.5523 37.6769 23.4841 37.6231 23.4446 37.5Z" fill="white"/>
<path d="M45.6346 29.6077C46.2484 30.5718 46.9736 31.3308 47.81 31.8846L47.7831 32.3308C47.7723 32.5103 47.7023 32.6154 47.5731 32.6462C47.512 32.6564 47.4492 32.6692 47.3846 32.6846L44.9723 30.1385C44.8502 30.0103 44.7982 29.8359 44.8161 29.6154L44.8646 29.1231C44.9005 28.718 44.9884 28.6923 45.1284 29.0462C45.2397 29.3282 45.4084 29.5154 45.6346 29.6077Z" fill="white"/>
<path d="M49.56 35.1539L47.8316 34.4769C47.3182 34.641 46.8731 34.341 46.4962 33.5769L47.2608 33.4077C47.3182 33.3974 47.3254 33.3615 47.2823 33.3L47.1154 33.0692L47.3846 32.6846C47.4492 32.6692 47.5121 32.6564 47.5731 32.6462C47.7023 32.6154 47.7723 32.5103 47.7831 32.3308L47.81 31.8846L47.9608 32.3692C48.0649 32.7026 48.1726 32.7051 48.2839 32.3769C48.65 31.3077 46.4154 29.8308 45.8823 29.3846C46.1516 28.4692 48.5154 30.8154 49.0539 31.1923C49.219 31.3103 49.3392 31.4872 49.4146 31.7231C49.7592 32.8103 49.8077 33.9538 49.56 35.1539Z" fill="#D0CFCF"/>
<path d="M41.5759 30.3941C41.9586 29.9418 42.1766 29.416 42.0629 29.2196C41.9491 29.0232 41.5467 29.2306 41.1641 29.6828C40.7814 30.1351 40.5634 30.6609 40.6771 30.8573C40.7909 31.0537 41.1933 30.8463 41.5759 30.3941Z" fill="white"/>
<path d="M50.6262 29.3692C50.698 29.4513 50.7572 29.5615 50.8039 29.7C50.8972 29.9872 50.8326 30.1205 50.61 30.1C50.2869 30.0692 50.1057 29.8256 50.0662 29.3692C50.0231 28.9026 50.2098 28.9026 50.6262 29.3692Z" fill="white"/>
<path d="M45.8823 29.3846C46.4154 29.8308 48.65 31.3077 48.2839 32.3769C48.1726 32.7051 48.0649 32.7026 47.9608 32.3692L47.81 31.8846C46.9736 31.3308 46.2485 30.5718 45.6346 29.6077L45.8823 29.3846Z" fill="#6F6D6E" fill-opacity="0.996"/>
<path d="M23.1538 32.0692C23.1538 32.141 23.152 32.2154 23.1485 32.2923C23.1449 32.4513 23.0892 32.5205 22.9815 32.5L22.7338 32.4539C22.5867 32.4231 22.5113 32.3026 22.5077 32.0923C22.4969 31.4 24.0585 30.3616 24.4731 29.9616C24.6131 29.8333 24.71 29.8821 24.7638 30.1077C24.9038 30.6923 23.6277 31.4846 23.3423 31.6539C23.2167 31.7308 23.1538 31.8692 23.1538 32.0692Z" fill="#6F6D6E" fill-opacity="0.996"/>
<path d="M28.3235 31.2101C28.8059 31.7071 29.2619 31.9815 29.3419 31.823C29.4219 31.6645 29.0957 31.1331 28.6133 30.6361C28.1309 30.1391 27.675 29.8646 27.595 30.0231C27.515 30.1816 27.8411 30.713 28.3235 31.2101Z" fill="white"/>
<path d="M19.7723 32.3154C19.0831 39.7615 24.1661 44.5846 28.4361 46.5846C28.6264 46.6718 28.6497 46.8179 28.5061 47.0231L28.3823 47.2C28.3428 47.2564 28.2961 47.2743 28.2423 47.2538C23.3154 45.4923 17.99 39.8 18.9484 31.8231C18.9664 31.6641 19.0561 31.4718 19.2177 31.2461C19.3397 31.0718 19.4923 31.2026 19.6754 31.6385C19.7615 31.8487 19.7938 32.0743 19.7723 32.3154Z" fill="white"/>
<path d="M25.3077 31.0846C25.8892 31.3872 26.5013 31.5026 27.1438 31.4308C27.5854 31.3846 27.6033 31.4846 27.1977 31.7308C26.4367 32.1974 25.7169 32.0462 25.0385 31.2769L25.3077 31.0846Z" fill="#D0CFCF"/>
<path d="M43.2331 33.8077L43.2116 34.1615L42.4954 34.4231C42.4408 34.4417 42.3837 34.4393 42.33 34.4161C42.2762 34.393 42.2277 34.3499 42.1894 34.2913C42.1511 34.2327 42.1244 34.1606 42.1119 34.0824C42.0995 34.0042 42.1017 33.9227 42.1185 33.8462C42.6067 31.6974 43.6477 30.9359 45.2416 31.5615C45.4605 31.6436 45.4893 31.8 45.3277 32.0308L45.1985 32.2231C45.098 32.3667 44.9903 32.3769 44.8754 32.2539C43.8039 31.1308 42.28 32.9077 43.2331 33.8077Z" fill="white"/>
<path d="M35.5543 32.1188L35.479 32.1145C35.2383 32.1006 35.0353 32.3682 35.0256 32.712L34.9751 34.5106C34.9654 34.8544 35.1527 35.1443 35.3934 35.1582L35.4687 35.1625C35.7094 35.1763 35.9123 34.9087 35.922 34.5649L35.9726 32.7664C35.9822 32.4225 35.795 32.1326 35.5543 32.1188Z" fill="black"/>
<path d="M47.1154 33.0692L47.2823 33.3C47.3254 33.3615 47.3182 33.3974 47.2608 33.4077L46.4962 33.5769C46.4926 34.9051 46.9377 35.2051 47.8316 34.4769L49.56 35.1538C49.42 35.6615 49.1795 36.0256 48.8385 36.2461C48.6662 36.3641 48.6751 36.4513 48.8654 36.5077C49.0772 36.5744 49.1669 36.8128 49.1346 37.2231C49.1201 37.4287 49.0677 37.6256 48.9827 37.7943C48.8977 37.9629 48.783 38.0975 48.65 38.1846C47.0633 39.1897 45.6544 40.4872 44.4231 42.0769C44.2149 42.1385 44.0085 42.0872 43.8039 41.9231C43.7572 41.8865 43.7188 41.8317 43.6931 41.7651C43.6675 41.6984 43.6557 41.6227 43.659 41.5469C43.6624 41.471 43.6809 41.398 43.7123 41.3366C43.7436 41.2752 43.7866 41.2278 43.8362 41.2C44.6798 40.7385 45.4139 40.0051 46.0385 39C46.9718 38.6359 47.7939 37.9667 48.5046 36.9923C48.58 36.8897 48.5692 36.8128 48.4723 36.7615C48.4185 36.7308 48.3664 36.7102 48.3162 36.7C48.1726 36.6641 48.0577 36.7282 47.9716 36.8923C47.4223 37.9308 46.2592 37.9461 46.0385 39C45.3744 39.2359 44.8036 39.7154 44.3262 40.4385C44.2077 40.6179 44.0695 40.6538 43.9116 40.5461L43.7177 40.4154C43.409 40.2051 43.4126 40.0077 43.7285 39.8231C44.0121 39.6538 44.1987 39.3795 44.2885 39C44.9418 38.9077 45.4964 38.5077 45.9523 37.8C46.0062 37.7179 45.999 37.6461 45.9308 37.5846L45.7908 37.4692C45.7226 37.4128 45.658 37.4205 45.5969 37.4923L44.2885 39C44.1987 39.0308 44.1162 39.0308 44.0408 39C43.8505 38.9282 43.8003 38.7692 43.89 38.5231L45.2308 34.9308L46.9808 36.1461V36.5L46.1192 37.0692C46.0839 37.0883 46.0545 37.1251 46.0367 37.1728C46.0188 37.2204 46.0137 37.2757 46.0223 37.3284C46.0308 37.381 46.0525 37.4274 46.0832 37.459C46.1139 37.4906 46.1516 37.5051 46.1892 37.5C46.6775 37.4692 46.9413 37.1359 46.9808 36.5C47.5587 36.5564 48.0451 36.2564 48.44 35.6C48.5441 35.4256 48.5154 35.341 48.3539 35.3461C48.2928 35.3461 48.2264 35.3461 48.1546 35.3461C48.0792 35.3461 48.0272 35.3949 47.9985 35.4923C47.8513 36.041 47.5569 36.2385 47.1154 36.0846C46.778 35.141 46.2395 34.6487 45.5 34.6077L45.2308 33.4538L45.5 33.2615C45.981 32.8103 46.5195 32.7461 47.1154 33.0692ZM45.3869 36.1154C45.2864 36.5205 45.0908 36.7538 44.8 36.8154C44.301 36.9179 44.231 37.0538 44.59 37.2231L44.7785 37.3077C44.9328 37.3795 45.0513 37.3179 45.1339 37.1231C45.3098 36.7231 45.5592 36.5923 45.8823 36.7308C46.0798 36.8179 46.1372 36.7256 46.0546 36.4538L45.9416 36.0923C45.7405 35.4513 45.5557 35.459 45.3869 36.1154Z" fill="white"/>
<path d="M45.5 33.2615L45.2308 33.4538L43.2115 34.1615L43.2331 33.8077C43.9618 33.2487 44.7174 33.0667 45.5 33.2615Z" fill="#D0CFCF"/>
<path d="M22.2546 33.2616C22.6639 33.4872 23.0139 33.8333 23.3046 34.3C23.4769 34.5718 23.4411 34.6513 23.1969 34.5385C22.7769 34.3539 22.4359 33.9744 22.1739 33.4C22.0949 33.2308 22.1218 33.1846 22.2546 33.2616Z" fill="#6F6D6E" fill-opacity="0.996"/>
<path d="M24.5592 33.7538L25.1462 34.6461C25.2862 34.8615 25.2575 34.9256 25.06 34.8384C24.7298 34.6949 24.509 34.3769 24.3977 33.8846C24.3151 33.5051 24.369 33.4615 24.5592 33.7538Z" fill="#6F6D6E" fill-opacity="0.996"/>
<path d="M46.4962 33.5769C46.8731 34.341 47.3182 34.641 47.8316 34.4769C46.9377 35.2051 46.4926 34.9051 46.4962 33.5769Z" fill="#6F6D6E" fill-opacity="0.996"/>
<path d="M22.05 34.6077C22.4485 34.7769 23.6815 36.2154 23.8754 36.0923C24.1015 35.9436 24.1751 36.0154 24.0962 36.3077C24.0746 36.3897 24.0567 36.4718 24.0423 36.5538C24.01 36.6923 23.9508 36.7205 23.8646 36.6385L21.9746 34.8385C21.6444 34.5205 21.6695 34.4436 22.05 34.6077Z" fill="black"/>
<path d="M45.5 34.6077C46.2395 34.6487 46.778 35.141 47.1154 36.0846C47.0723 36.1051 47.0274 36.1256 46.9808 36.1462L45.2308 34.9308L45.5 34.6077Z" fill="#6F6D6E" fill-opacity="0.996"/>
<path d="M46.9808 36.5V36.1462C47.0274 36.1257 47.0723 36.1051 47.1154 36.0846C47.5569 36.2385 47.8513 36.041 47.9985 35.4923C48.0272 35.3949 48.0792 35.3462 48.1546 35.3462C48.2264 35.3462 48.2928 35.3462 48.3539 35.3462C48.5154 35.341 48.5441 35.4257 48.44 35.6C48.0451 36.2564 47.5587 36.5564 46.9808 36.5Z" fill="black"/>
<path d="M45.3869 36.1154C45.5556 35.459 45.7405 35.4513 45.9415 36.0923L46.0546 36.4539C46.1372 36.7256 46.0797 36.818 45.8823 36.7308C45.5592 36.5923 45.3097 36.7231 45.1338 37.1231C45.0513 37.318 44.9328 37.3795 44.7784 37.3077L44.59 37.2231C44.231 37.0539 44.301 36.918 44.8 36.8154C45.0908 36.7539 45.2864 36.5205 45.3869 36.1154Z" fill="black"/>
<path d="M46.9808 36.5C46.9413 37.1359 46.6775 37.4692 46.1893 37.5C46.1516 37.5051 46.1139 37.4906 46.0832 37.459C46.0525 37.4274 46.0308 37.381 46.0223 37.3284C46.0137 37.2757 46.0189 37.2204 46.0367 37.1728C46.0545 37.1251 46.0839 37.0883 46.1193 37.0692L46.9808 36.5Z" fill="black"/>
<path d="M23.6492 37.6616C23.7067 37.6513 23.7659 37.6539 23.8269 37.6692C24.01 37.7051 24.0998 37.7616 24.0962 37.8385C24.0962 37.9103 24.0962 37.9795 24.0962 38.0462C24.0962 38.1334 24.0657 38.1667 24.0046 38.1462C23.5487 37.9923 23.1323 37.6949 22.7554 37.2539C22.0554 36.4282 22.1003 36.2462 22.89 36.7077C23.1198 36.8462 23.3046 37.1103 23.4446 37.5C23.4841 37.6231 23.5523 37.6769 23.6492 37.6616Z" fill="black"/>
<path d="M46.0385 39C46.2592 37.9462 47.4223 37.9308 47.9715 36.8923C48.0577 36.7282 48.1726 36.6641 48.3161 36.7C48.3664 36.7103 48.4185 36.7308 48.4723 36.7615C48.5692 36.8128 48.58 36.8897 48.5046 36.9923C47.7938 37.9667 46.9718 38.6359 46.0385 39Z" fill="black"/>
<path d="M44.2885 39L45.5969 37.4923C45.6579 37.4205 45.7226 37.4128 45.7908 37.4692L45.9308 37.5846C45.999 37.6462 46.0061 37.718 45.9523 37.8C45.4964 38.5077 44.9418 38.9077 44.2885 39Z" fill="black"/>
<path d="M24.9038 39L24.3923 38.9846C24.1482 38.9795 24.0979 38.8385 24.2415 38.5615L24.36 38.3308C24.3827 38.2862 24.412 38.2493 24.4458 38.2227C24.4796 38.1961 24.5171 38.1804 24.5556 38.1768C24.5941 38.1731 24.6327 38.1815 24.6687 38.2015C24.7047 38.2215 24.7371 38.2525 24.7638 38.2923C24.9002 38.4923 24.9469 38.7282 24.9038 39Z" fill="black"/>
<path d="M44.4231 42.0769C45.4677 41.5231 47.1962 39.3539 48.0685 39.2769C48.4562 39.241 48.4903 39.3846 48.1708 39.7077L44.0462 43.9C44.0016 43.9457 43.9471 43.9672 43.8924 43.9608C43.8377 43.9544 43.7864 43.9205 43.7476 43.8651C43.7088 43.8096 43.685 43.7363 43.6805 43.6582C43.676 43.58 43.6911 43.5022 43.7231 43.4385L44.4231 42.0769Z" fill="white"/>
<path d="M27.5126 43.2215L23.7092 39.5566C23.581 39.4331 23.407 39.4814 23.3205 39.6645L23.2964 39.7155C23.21 39.8987 23.2438 40.1473 23.372 40.2708L27.1754 43.9357C27.3036 44.0592 27.4776 44.0109 27.5641 43.8278L27.5882 43.7767C27.6746 43.5936 27.6408 43.345 27.5126 43.2215Z" fill="white"/>
<path d="M43.0392 45.0692C43.0392 45.1039 43.0296 45.1372 43.0124 45.1617C42.9953 45.1862 42.972 45.2 42.9477 45.2H42.9046C42.7012 45.1976 42.5066 45.0304 42.3633 44.735C42.22 44.4395 42.1398 44.0398 42.14 43.6231V42.0231C42.1401 41.8152 42.1603 41.6094 42.1994 41.4175C42.2385 41.2256 42.2957 41.0514 42.3678 40.9048C42.4399 40.7583 42.5253 40.6423 42.6193 40.5636C42.7133 40.4849 42.8139 40.445 42.9154 40.4462H42.9585C42.9828 40.4462 43.006 40.4599 43.0232 40.4845C43.0404 40.509 43.05 40.5422 43.05 40.5769L43.0392 45.0692Z" fill="white"/>
<path d="M40.5193 45.1846L40.25 45.3769L39.3293 44.9615L38.9039 44.7385C39.5823 44.2513 40.1208 44.4 40.5193 45.1846Z" fill="#D0CFCF"/>
<path d="M40.5193 45.1846L40.81 45.1461C40.95 45.1308 40.9895 45.2128 40.9285 45.3923C40.5193 46.659 39.8552 47.4436 38.9362 47.7461C38.2721 47.9667 38.2326 47.8256 38.8177 47.3231C39.41 46.8154 39.8875 46.1667 40.25 45.3769L40.5193 45.1846Z" fill="white"/>
<path d="M38.5915 51.2846L34.1761 51.2308C34.1347 51.2291 34.0949 51.2075 34.0632 51.1693C34.0315 51.1311 34.0098 51.0787 34.0017 51.0206C33.9935 50.9625 33.9994 50.9022 34.0184 50.8496C34.0374 50.7969 34.0683 50.755 34.1061 50.7308C35.639 49.8436 37.2274 49.459 38.8715 49.5769C39.069 49.5872 39.139 49.7282 39.0815 50L38.8769 50.9769C38.8338 51.182 38.7387 51.2846 38.5915 51.2846Z" fill="#D0CFCF"/>
<path d="M35.07 52.0385C35.5044 51.7564 35.8939 51.8179 36.2385 52.2231C36.4646 52.4897 36.4395 52.6949 36.1631 52.8385C35.8113 53.0282 35.4505 53.0154 35.0808 52.8C35.0284 52.7692 34.9835 52.7173 34.9515 52.6505C34.9195 52.5838 34.9019 52.5051 34.9008 52.4243C34.8996 52.3434 34.915 52.2638 34.9451 52.1953C34.9752 52.1267 35.0186 52.0722 35.07 52.0385Z" fill="white"/>
<path d="M36.6369 54L37.9831 54.7692L37.8484 55.1538C37.6223 54.6769 37.3531 54.6128 37.0407 54.9615L36.6369 54Z" fill="#6F6D6E" fill-opacity="0.996"/>
<path d="M37.8485 55.1538L38.4785 61.6923L38.29 62.0846C38.1321 62.4282 37.9795 62.4231 37.8323 62.0692C37.8 61.9923 37.7605 61.9308 37.7138 61.8846L37.0408 54.9615C37.3531 54.6128 37.6223 54.6769 37.8485 55.1538Z" fill="white"/>
<path d="M35.4038 62.6231H35.1346C34.9336 62.5 34.7164 62.4436 34.483 62.4538C34.2928 62.459 34.2084 62.3282 34.23 62.0615C34.3269 60.8615 34.3 56.2461 34.8815 55.6615C34.9307 55.6123 34.9885 55.5832 35.0485 55.5776C35.1085 55.572 35.1684 55.59 35.2217 55.6297C35.275 55.6693 35.3197 55.7291 35.3509 55.8026C35.382 55.876 35.3985 55.9603 35.3984 56.0461L35.4038 62.6231Z" fill="white"/>
<path d="M38.4784 61.6923L38.7692 61.8539V62.4923L37.7946 62.4539C37.6869 62.4539 37.6438 62.3769 37.6654 62.2231L37.7138 61.8846C37.7605 61.9308 37.8 61.9923 37.8323 62.0692C37.9795 62.4231 38.132 62.4282 38.29 62.0846L38.4784 61.6923Z" fill="#6F6D6E" fill-opacity="0.996"/>
</svg>
